<svg width="60" height="60" viewBox="0 0 60 60" fill="none" xmlns="http://www.w3.org/2000/svg">
<path d="M30 0C18.9722 0 10 8.97223 10 20C10 23.3106 10.8277 26.593 12.4012 29.5044L28.9063 59.3555C29.1261 59.7534 29.5448 60 30 60C30.4553 60 30.874 59.7534 31.0938 59.3555L47.605 29.4946C49.1724 26.593 50.0001 23.3105 50.0001 19.9999C50.0001 8.97223 41.0279 0 30 0ZM30 30C24.4861 30 20.0001 25.5139 20.0001 20C20.0001 14.4861 24.4861 10.0001 30 10.0001C35.5139 10.0001 40 14.4861 40 20C40 25.5139 35.5139 30 30 30Z" fill="url(#paint0_linear)"/>
<defs>
<linearGradient id="paint0_linear" x1="9.08116" y1="20.8451" x2="45.5617" y2="21.9367" gradientUnits="userSpaceOnUse">
<stop stop-color="#A9A4AE"/>
<stop offset="0.528153" stop-color="#EAE9F1"/>
<stop offset="1" stop-color="#ADA8B4"/>
</linearGradient>
</defs>
</svg>
