<svg width="114" height="51" viewBox="0 0 114 51" fill="none" xmlns="http://www.w3.org/2000/svg">
<g clip-path="url(#clip0)">
<path fill-rule="evenodd" clip-rule="evenodd" d="M83.1015 36.4629C81.6815 36.4629 80.2934 36.8892 79.1127 37.6879C77.932 38.4866 77.0118 39.6218 76.4684 40.95C75.925 42.2782 75.7828 43.7397 76.0598 45.1497C76.3369 46.5597 77.0207 47.8548 78.0247 48.8714C79.0288 49.8879 80.3081 50.5802 81.7009 50.8607C83.0936 51.1411 84.5372 50.9972 85.8491 50.447C87.161 49.8969 88.2823 48.9652 89.0712 47.7699C89.8601 46.5746 90.2812 45.1692 90.2812 43.7316C90.2777 41.8049 89.5202 39.9581 88.1745 38.5957C86.8288 37.2333 85.0046 36.4664 83.1015 36.4629ZM83.1015 48.0268C82.2624 48.0268 81.4422 47.7749 80.7445 47.3029C80.0468 46.8309 79.5031 46.1601 79.182 45.3753C78.8608 44.5905 78.7768 43.7268 78.9405 42.8937C79.1042 42.0605 79.5083 41.2952 80.1016 40.6945C80.6949 40.0938 81.4509 39.6847 82.2739 39.519C83.0968 39.3533 83.9499 39.4383 84.7251 39.7634C85.5003 40.0885 86.1629 40.639 86.6291 41.3454C87.0952 42.0517 87.3441 42.8821 87.3441 43.7316C87.3406 44.8697 86.8925 45.9602 86.0977 46.7649C85.3028 47.5696 84.2257 48.0233 83.1015 48.0268Z" fill="white"/>
<path fill-rule="evenodd" clip-rule="evenodd" d="M20.7422 36.4629C19.3222 36.4629 17.934 36.8892 16.7534 37.6879C15.5727 38.4866 14.6524 39.6218 14.109 40.95C13.5656 42.2782 13.4234 43.7397 13.7005 45.1497C13.9775 46.5597 14.6613 47.8548 15.6654 48.8714C16.6695 49.8879 17.9488 50.5802 19.3415 50.8607C20.7342 51.1411 22.1778 50.9972 23.4897 50.447C24.8016 49.8969 25.9229 48.9652 26.7118 47.7699C27.5007 46.5746 27.9218 45.1692 27.9218 43.7316C27.9184 41.8049 27.1608 39.9581 25.8151 38.5957C24.4694 37.2333 22.6453 36.4664 20.7422 36.4629ZM20.7422 48.0268C19.9031 48.0268 19.0828 47.7749 18.3851 47.3029C17.6875 46.8309 17.1437 46.1601 16.8226 45.3753C16.5015 44.5905 16.4175 43.7268 16.5812 42.8937C16.7449 42.0605 17.1489 41.2952 17.7422 40.6945C18.3356 40.0938 19.0915 39.6847 19.9145 39.519C20.7375 39.3533 21.5905 39.4383 22.3657 39.7634C23.1409 40.0885 23.8035 40.639 24.2697 41.3454C24.7359 42.0517 24.9847 42.8821 24.9847 43.7316C24.9812 44.8697 24.5332 45.9602 23.7383 46.7649C22.9434 47.5696 21.8663 48.0233 20.7422 48.0268Z" fill="white"/>
<path fill-rule="evenodd" clip-rule="evenodd" d="M26.2901 35.2074L24.3842 33.6876C23.0789 33.6876 21.0033 33.6876 20.1026 33.6876C18.8392 33.6597 17.586 33.9223 16.4373 34.4556C15.2887 34.989 14.2745 35.7793 13.4712 36.7669C12.1769 38.5172 11.3619 40.5823 11.1084 42.7536L12.7401 42.9519C12.9436 40.8672 13.9329 38.9421 15.5024 37.5771C17.072 36.212 19.1008 35.512 21.1671 35.6226C23.2334 35.7332 25.178 36.646 26.5965 38.1711C28.0151 39.6962 28.7983 41.7161 28.7834 43.8109C28.788 44.1864 28.7662 44.5618 28.7182 44.9343L30.3891 45.1457C30.195 43.4191 29.8942 41.7065 29.4883 40.018C28.6992 38.2426 27.6177 36.6159 26.2901 35.2074Z" fill="white"/>
<path fill-rule="evenodd" clip-rule="evenodd" d="M10.2343 42.1979H10.6259C10.998 40.3484 11.711 38.5864 12.7276 37.0041C13.4686 35.7961 14.5006 34.7985 15.7267 34.105C16.9529 33.4115 18.333 33.0448 19.7375 33.0393C20.8993 33.0393 23.9279 33.0393 25.0636 33.0393V32.4314L26.0034 30.4358V11.9336H9.35967C9.17844 11.9404 9.00061 11.9855 8.83751 12.0658C7.88263 12.3189 7.0574 12.9278 6.52697 13.7706C4.56888 17.0217 2.20611 26.3521 2.28444 27.6208C2.16011 27.6819 2.02847 27.7263 1.89282 27.753V40.9688H0.913775L0 42.2904L0.339402 44.9336L1.00515 45.5415H12.7537V43.4534L10.0646 43.1362L10.2343 42.1979ZM8.32841 29.2332C7.08236 29.4745 5.79572 29.3834 4.59498 28.9688C4.09893 28.6252 4.68636 24.7926 5.49571 22.3609C6.30505 19.9292 7.54517 14.2728 8.39368 13.8895C9.05649 13.682 9.75688 13.6278 10.4431 13.731H20.8863C21.0919 13.7511 21.2814 13.8526 21.4135 14.0135C21.5455 14.1744 21.6094 14.3816 21.5912 14.59V22.5195C21.6095 22.7293 21.546 22.938 21.4143 23.101C21.2826 23.2641 21.093 23.3684 20.8863 23.3917H15.8866C15.1989 23.3157 14.5032 23.374 13.8372 23.5635C13.0453 23.8675 12.3658 24.4123 11.8921 25.123C10.7303 26.96 10.2082 29.0746 8.32841 29.2332Z" fill="white"/>
<path d="M112.643 0H33.9274C33.1776 0 32.5698 0.615362 32.5698 1.37445V33.2247C32.5698 33.9838 33.1776 34.5991 33.9274 34.5991H112.643C113.392 34.5991 114 33.9838 114 33.2247V1.37445C114 0.615362 113.392 0 112.643 0Z" fill="white"/>
<path fill-rule="evenodd" clip-rule="evenodd" d="M91.1948 41.0757H109.079V44.3532C109.082 44.5589 109.164 44.7553 109.308 44.9008C109.452 45.0463 109.646 45.1295 109.849 45.1329C109.95 45.1329 110.05 45.1128 110.144 45.0736C110.237 45.0344 110.322 44.977 110.393 44.9045C110.465 44.8321 110.522 44.7462 110.56 44.6516C110.599 44.557 110.619 44.4556 110.619 44.3532V35.6836H88.1924C89.8576 37.0087 90.937 38.9473 91.1948 41.0757Z" fill="white"/>
<path fill-rule="evenodd" clip-rule="evenodd" d="M78.1013 35.6836H27.4912C28.7391 37.0028 29.7428 38.5382 30.4545 40.2166C30.5328 40.4942 30.6111 40.7981 30.6764 41.1153H75.0597C75.3285 38.9702 76.4213 37.0187 78.1013 35.6836Z" fill="white"/>
<path fill-rule="evenodd" clip-rule="evenodd" d="M70.3228 41.6445H63.6914L75.2572 44.7899C75.2572 44.6445 75.2572 44.4859 75.2572 44.3274C75.2575 43.8813 75.3145 43.4371 75.4269 43.0058L70.3228 41.6445Z" fill="white"/>
<path d="M60.4023 41.6445H43.4844V44.7899H60.4023V41.6445Z" fill="white"/>
<path d="M40.0778 41.6445H31.7755C31.3213 41.6445 30.9531 42.0173 30.9531 42.4771V43.9573C30.9531 44.4171 31.3213 44.7899 31.7755 44.7899H40.0778C40.532 44.7899 40.9002 44.4171 40.9002 43.9573V42.4771C40.9002 42.0173 40.532 41.6445 40.0778 41.6445Z" fill="white"/>
<path fill-rule="evenodd" clip-rule="evenodd" d="M27.7677 34.5998H30.5613C30.7771 34.5998 30.9843 34.5139 31.1382 34.3606C31.2921 34.2073 31.3802 33.9989 31.3837 33.7804V24.0006C31.3802 23.7821 31.2921 23.5737 31.1382 23.4204C30.9843 23.2671 30.7771 23.1812 30.5613 23.1812H30.1957V4.94336H28.1332V23.1812H27.7677C27.5518 23.1812 27.3446 23.2671 27.1908 23.4204C27.0369 23.5737 26.9487 23.7821 26.9453 24.0006V33.7804C26.9487 33.9989 27.0369 34.2073 27.1908 34.3606C27.3446 34.5139 27.5518 34.5998 27.7677 34.5998Z" fill="white"/>
</g>
<defs>
<clipPath id="clip0">
<rect width="114" height="51" fill="white"/>
</clipPath>
</defs>
</svg>
