<svg width="74" height="64" viewBox="0 0 74 64" fill="none" xmlns="http://www.w3.org/2000/svg">
<g clip-path="url(#clip0)">
<path d="M74.0031 12.0508V17.5697C74.0029 18.0137 73.8687 18.4471 73.6183 18.8121C73.3679 19.1772 73.0133 19.4567 72.6016 19.6133V15.3883H71.4172V19.7511H70.0156V12.0508H70.6008L71.3016 13.2811H72.7032L73.404 12.0508H74.0031Z" fill="white"/>
<path d="M74.0008 10.7006V12.0512H73.4157L72.7149 10.8173H71.3133L70.6125 12.0512H70.0273V8.51564H71.8319C72.1167 8.5147 72.3988 8.57056 72.6622 8.67999C72.9255 8.78942 73.1648 8.95027 73.3664 9.1533C73.5679 9.35633 73.7277 9.59754 73.8366 9.86307C73.9455 10.1286 74.0013 10.4132 74.0008 10.7006Z" fill="white"/>
<path d="M72.5984 19.6133V25.5636H71.4141V19.7512H71.831C72.0929 19.752 72.3529 19.7053 72.5984 19.6133Z" fill="white"/>
<path d="M72.0071 11.4336C72.1286 11.4329 72.2475 11.4686 72.3488 11.5362C72.4501 11.6037 72.5292 11.7001 72.5762 11.8131C72.6231 11.9261 72.6357 12.0506 72.6125 12.1708C72.5892 12.2911 72.5311 12.4017 72.4455 12.4886C72.3599 12.5754 72.2506 12.6347 72.1316 12.6589C72.0125 12.683 71.8891 12.671 71.7768 12.6243C71.6646 12.5775 71.5686 12.4982 71.5011 12.3964C71.4335 12.2946 71.3975 12.1748 71.3975 12.0523C71.3975 11.8888 71.4616 11.732 71.5758 11.6161C71.6901 11.5001 71.8451 11.4345 72.0071 11.4336Z" fill="white"/>
<path d="M72.491 26.0059L72.0075 32.5643L71.5239 26.0059H72.491Z" fill="white"/>
<path d="M69.5199 11.5469V13.0707L67.3405 14.2162L66.6572 13.0495L69.5199 11.5469Z" fill="white"/>
<path d="M66.8091 14.3392C66.9084 14.5089 66.9736 14.6966 67.0009 14.8917C67.0283 15.0868 67.0172 15.2855 66.9684 15.4763C66.9196 15.667 66.834 15.8462 66.7164 16.0036C66.5989 16.161 66.4518 16.2934 66.2835 16.3934L64.43 17.4965C64.0906 17.6982 63.6858 17.756 63.3042 17.6572C62.9227 17.5585 62.5955 17.3113 62.3942 16.9697L58.0808 9.58043C57.9541 9.36306 57.8836 9.11707 57.8756 8.86505C57.8677 8.61302 57.9225 8.363 58.0352 8.13794H40.137C39.8497 8.13794 39.5764 8.13794 39.2681 8.13794C38.6626 8.11265 38.0646 7.9934 37.4951 7.78438C36.9372 7.56484 36.4069 7.28005 35.9148 6.93586C34.9442 6.26411 34.1067 5.47922 33.2378 4.75798C32.3928 4.02459 31.4852 3.36796 30.5257 2.79576C29.5666 2.23927 28.5457 1.799 27.4843 1.48409C25.3317 0.882155 23.0947 0.646758 20.8653 0.787589C18.6399 0.843708 16.448 1.34734 14.418 2.26897C13.4301 2.74288 12.5314 3.3865 11.762 4.17108C11.386 4.56233 11.0535 4.99387 10.7704 5.45801C10.6497 5.66056 10.5397 5.86945 10.441 6.0838C11.4806 6.3315 12.4096 6.91953 13.083 7.7561L34.9021 34.7569C35.719 35.7696 36.1037 37.0682 35.9716 38.3671C35.8395 39.666 35.2015 40.8587 34.1978 41.6829C33.1942 42.5072 31.9071 42.8953 30.6199 42.7621C29.3326 42.6288 28.1505 41.985 27.3336 40.9723L5.52849 13.968C4.92537 13.2236 4.55211 12.3168 4.45502 11.3603C4.35793 10.4038 4.54126 9.43954 4.98229 8.58718C5.42332 7.73482 6.10264 7.03185 6.93598 6.56547C7.76932 6.09908 8.72002 5.88981 9.67016 5.96359C9.67016 5.92824 9.69469 5.89995 9.71221 5.8646C9.83438 5.58966 9.97365 5.32278 10.1292 5.06557C10.4419 4.55574 10.8085 4.08158 11.2224 3.65136C12.0503 2.79803 13.022 2.10009 14.0921 1.59015C16.2123 0.621044 18.5035 0.0908655 20.8303 0.0309875C23.1425 -0.117402 25.4631 0.12153 27.698 0.738092C28.8158 1.06987 29.8908 1.53389 30.9006 2.12048C31.8919 2.71582 32.8298 3.39722 33.7038 4.15694C34.5868 4.89233 35.4207 5.66661 36.3247 6.27825C36.7599 6.58946 37.2305 6.84703 37.7263 7.04546C38.2217 7.23318 38.743 7.34174 39.2716 7.36719H46.0622H58.8131L60.4284 6.40907C60.7683 6.20766 61.1733 6.15039 61.5549 6.24979C61.9365 6.3492 62.2635 6.59718 62.4642 6.93939L66.8091 14.3392ZM33.434 37.511C33.4347 36.9211 33.2618 36.3442 32.9374 35.8535C32.6129 35.3627 32.1514 34.9802 31.6113 34.7543C31.0712 34.5284 30.4769 34.4692 29.9034 34.5844C29.33 34.6996 28.8034 34.9839 28.3902 35.4013C27.9771 35.8187 27.6959 36.3504 27.5825 36.9291C27.469 37.5078 27.5283 38.1075 27.7528 38.6522C27.9774 39.1968 28.3571 39.662 28.8438 39.9888C29.3306 40.3156 29.9025 40.4893 30.4872 40.4879C31.2684 40.4851 32.0169 40.1705 32.569 39.6127C33.1212 39.0549 33.4321 38.2994 33.434 37.511ZM12.2245 11.4543C12.2245 10.8948 12.0601 10.348 11.7521 9.88287C11.4441 9.41774 11.0063 9.05521 10.4941 8.84114C9.98189 8.62706 9.41827 8.57105 8.87451 8.68018C8.33075 8.78932 7.83127 9.0587 7.43924 9.45426C7.04722 9.84982 6.78024 10.3538 6.67208 10.9025C6.56392 11.4511 6.61943 12.0198 6.83159 12.5366C7.04376 13.0535 7.40305 13.4952 7.86403 13.806C8.325 14.1168 8.86697 14.2827 9.42138 14.2827C10.1648 14.2827 10.8778 13.9847 11.4035 13.4542C11.9292 12.9238 12.2245 12.2044 12.2245 11.4543Z" fill="white"/>
<path d="M57.5571 10.1113L59.7086 13.7989H42.1362V10.1113H57.5571Z" fill="white"/>
<path d="M36.4214 31.2461C38.5837 31.291 40.6424 32.1893 42.1559 33.7482C43.6694 35.307 44.517 37.4024 44.517 39.5846C44.517 41.7669 43.6694 43.8622 42.1559 45.4211C40.6424 46.98 38.5837 47.8782 36.4214 47.9231H8.26362C6.10132 47.8782 4.04259 46.98 2.52911 45.4211C1.01563 43.8622 0.167969 41.7669 0.167969 39.5846C0.167969 37.4024 1.01563 35.307 2.52911 33.7482C4.04259 32.1893 6.10132 31.291 8.26362 31.2461H17.4124L26.2284 42.1567C27.3152 43.5013 28.8869 44.3553 30.5977 44.5306C32.3085 44.706 34.0183 44.1885 35.3509 43.0919C36.6836 41.9952 37.5299 40.4094 37.7037 38.6832C37.8775 36.9569 37.3646 35.2318 36.2777 33.8871L34.1403 31.2461H36.4214ZM12.7066 43.6734V35.4251H11.5363V43.6734H12.7066ZM10.359 43.6734V35.4251H9.18516V43.6734H10.359ZM7.95177 43.6381V35.3862H6.78145V43.6381H7.95177ZM5.60061 43.6381V35.3862H4.43029V43.6381H5.60061Z" fill="white"/>
<path d="M41.3778 8.69922V15.2116H30.6172V10.52V8.69922H41.3778Z" fill="white"/>
<path d="M31.8874 63.334V63.5886C31.8893 63.7238 31.8776 63.8588 31.8524 63.9916H6.4522C6.4259 63.8565 6.41183 63.7192 6.41016 63.5815V63.327C6.41016 62.7559 6.63498 62.2083 7.03516 61.8045C7.43535 61.4007 7.97812 61.1738 8.54406 61.1738H29.764C30.3294 61.1766 30.8705 61.4057 31.2686 61.8107C31.6667 62.2157 31.8893 62.7636 31.8874 63.334Z" fill="white"/>
<path d="M29.7132 38.5794C29.9343 38.7523 30.2061 38.8461 30.4858 38.8461C30.7656 38.8461 31.0373 38.7523 31.2585 38.5794L29.3208 37.0804C29.2128 37.3389 29.1928 37.6262 29.2638 37.8974C29.3348 38.1686 29.4928 38.4084 29.7132 38.5794ZM32.7932 37.5188L31.6369 39.5376H29.3243L28.168 37.5188L29.3243 35.5H31.6369L32.7932 37.5188ZM31.6404 38.0774C31.7491 37.8178 31.7693 37.5292 31.698 37.2567C31.6266 36.9842 31.4676 36.7434 31.246 36.5719C31.0243 36.4005 30.7525 36.3081 30.4732 36.3092C30.194 36.3104 29.9229 36.405 29.7027 36.5783L31.6404 38.0774Z" fill="white"/>
<path d="M29.9481 15.2131V16.1571H21.2198L20.0039 14.6545L20.547 14.209H29.9481V15.2131Z" fill="white"/>
<path d="M29.9496 10.5203V13.3876H20.5485V14.2078L20.0054 14.6533L14.4341 7.75195H29.9496V8.69947V9.70002H20.5485V10.5203H29.9496Z" fill="white"/>
<path d="M26.7668 48.75V60.4172H11.5352V48.75H26.7668ZM25.8278 59.2505V49.7329H22.3413V54.5907L25.8278 59.2505Z" fill="white"/>
<path d="M9.43283 10.0508C9.71004 10.0508 9.98102 10.1337 10.2115 10.2891C10.442 10.4445 10.6216 10.6654 10.7277 10.9238C10.8338 11.1822 10.8616 11.4666 10.8075 11.7409C10.7534 12.0152 10.6199 12.2672 10.4239 12.465C10.2279 12.6628 9.97815 12.7975 9.70627 12.852C9.43439 12.9066 9.15258 12.8786 8.89647 12.7715C8.64036 12.6645 8.42147 12.4832 8.26746 12.2507C8.11345 12.0181 8.03125 11.7447 8.03125 11.465C8.03125 11.0899 8.17892 10.7302 8.44176 10.465C8.70461 10.1998 9.06111 10.0508 9.43283 10.0508Z" fill="white"/>
</g>
<defs>
<clipPath id="clip0">
<rect width="74" height="64" fill="white"/>
</clipPath>
</defs>
</svg>
