<svg width="156" height="60" viewBox="0 0 156 60" fill="none" xmlns="http://www.w3.org/2000/svg">
<path d="M152.718 52.0549V46.7291C152.716 45.9133 152.391 45.1315 151.816 44.5547C151.241 43.9778 150.462 43.6528 149.648 43.6508H149.08C148.267 43.6528 147.487 43.9778 146.912 44.5547C146.337 45.1315 146.013 45.9133 146.011 46.7291V52.0549H144.875V46.7291C144.873 45.9133 144.548 45.1315 143.973 44.5547C143.398 43.9778 142.619 43.6528 141.805 43.6508H141.237C140.424 43.6528 139.644 43.9778 139.069 44.5547C138.494 45.1315 138.17 45.9133 138.168 46.7291V52.0549H134.593V38.7048H131.027V46.373H130.112V30.641H131.082V29.9763H118.245V26.1145H111.08V29.9604H108.484V28.0533H103.987V29.9763H68.3856V30.641H70.1373V46.373H69.2378V31.551H68.3383V46.373H61.6946V13.5716H68.3383V29.0662H69.2378V13.5716H75.8814V29.0662H76.7809V13.5716H83.4246V29.0662H84.3241V13.5716H90.9678V29.0662H91.8673V13.5716H96.9487V29.0662H103.079V27.1432H109.392V29.0662H110.181V25.2123H119.144V29.0662H126.814V8.17462H128.613V6.08547H72.9541V4.43155H53.7096V6.08547H49.4488V0H45.1959V6.08547H39.6726V2.77763H31.1905V6.08547H12.7824V8.17462H14.5971V10.2875V30.8626H0V32.2791H0.91528V59.9763H156V52.0628L152.718 52.0549ZM122.734 13.5716H125.157V16.6895H122.734V13.5716ZM122.734 19.6254H125.157V22.7433H122.734V19.6254ZM116.99 13.5716H119.405V16.6895H116.99V13.5716ZM116.99 19.6254H119.405V22.7433H116.99V19.6254ZM111.254 13.5716H113.668V16.6895H111.254V13.5716ZM111.254 19.6254H113.668V22.7433H111.254V19.6254ZM105.502 13.5716H107.924V16.6895H105.494L105.502 13.5716ZM105.502 19.6254H107.924V22.7433H105.494L105.502 19.6254ZM99.7576 13.5716H102.18V16.6895H99.7576V13.5716ZM99.7576 19.6254H102.18V22.7433H99.7576V19.6254ZM100.547 32.0179H114.662V46.373H100.507L100.547 32.0179ZM54.1514 13.5716H60.7951V46.373H54.1514V13.5716ZM23.9866 13.5716H30.6303V46.373H23.9866V13.5716ZM17.9979 52.0549H11.3148V49.8549H17.9979V52.0549ZM17.9979 13.5716H23.0871V46.373H17.9979V13.5716ZM27.3953 52.0549H20.7122V49.8549H27.3953V52.0549ZM36.7927 52.0549H30.1096V49.8549H36.7927V52.0549ZM38.1735 46.373H31.5614V13.5716H38.205L38.1735 46.373ZM39.073 13.5716H45.7167V46.373H39.073V13.5716ZM46.1743 52.0549H39.507V49.8549H46.1901L46.1743 52.0549ZM46.6004 13.5716H53.2598V46.373H46.6162L46.6004 13.5716ZM55.5796 52.0549H48.9201V49.8549H55.5954L55.5796 52.0549ZM64.977 52.0549H58.3018V49.8549H64.977V52.0549ZM74.3744 52.0549H67.6992V49.8549H74.3744V52.0549ZM83.7718 52.0549H77.0965V49.8549H83.7718V52.0549ZM84.1347 46.373H71.0131V32.0179H84.1111L84.1347 46.373ZM85.0342 32.0179H99.6077V46.373H85.0342V32.0179ZM102.03 60H89.6027V49.5463H102.03V60ZM117.187 60H104.752V49.5463H117.187V60ZM128.613 39.2034V46.373H115.515V32.0179H128.613V39.2034Z" fill="white"/>
</svg>
