<svg width="126" height="69" viewBox="0 0 126 69" fill="none" xmlns="http://www.w3.org/2000/svg">
<g clip-path="url(#clip0)">
<path d="M108.087 68.7147C108.458 68.4429 108.459 68.3829 108.112 67.3336C107.913 66.73 107.58 66.0256 107.373 65.7683C107.045 65.3606 107.033 65.229 107.279 64.7511C107.436 64.4486 107.66 64.1899 107.777 64.1753C107.897 64.1607 108.173 64.1359 108.392 64.1212C108.875 64.0891 109.114 63.3262 108.816 62.7664C108.663 62.48 108.676 62.2695 108.859 62.0474C109.122 61.7288 109.115 61.6981 108.414 60.2103C108.206 59.7675 108.199 59.5599 108.388 59.3319C108.579 59.101 108.563 58.9724 108.314 58.7649C108.138 58.6173 107.993 58.2694 107.993 57.9903C107.993 57.7111 107.921 57.4831 107.833 57.4831C107.647 57.4831 107.037 58.3776 107.09 58.572C107.109 58.6436 106.888 58.8292 106.598 58.9841C106.309 59.1405 106.017 59.4898 105.948 59.7616C105.881 60.0334 105.748 60.2556 105.652 60.2556C105.556 60.2556 105.341 60.3944 105.172 60.5625C104.726 61.0112 104.063 60.7467 103.637 59.9487C103.37 59.4547 103.104 59.2472 102.71 59.2296C102.406 59.2165 101.796 59.1697 101.354 59.1273C100.91 59.0835 100.503 59.1215 100.447 59.2121C100.298 59.4547 99.5305 59.2589 98.9199 58.8233C98.1638 58.284 97.9705 58.173 97.4906 58.002C97.0879 57.8587 97.0908 57.8441 97.5633 57.7184L98.0591 57.5869L97.5095 56.9906C97.2071 56.6632 96.9599 56.3037 96.9599 56.1926C96.9599 56.0816 96.8611 55.991 96.739 55.991C96.6168 55.991 96.2591 55.7454 95.9436 55.4473C95.4057 54.9387 95.2675 54.9109 93.7772 55.0147C91.496 55.1725 91.2314 55.2193 91.2284 55.4575C91.227 55.5744 90.894 55.8872 90.4869 56.1517C89.6451 56.6998 89.5593 57.0505 90.1714 57.4334C90.6454 57.7316 90.7472 58.7371 90.3444 59.1419C90.2063 59.2808 90.0856 60.0407 90.074 60.8387C90.0551 62.1102 89.9824 62.3572 89.4619 62.9155L88.8701 63.5483L87.9323 63.2093C87.1632 62.9316 86.9276 62.9184 86.6238 63.142C86.3213 63.3642 86.1483 63.3598 85.6772 63.1157C85.1596 62.8468 85.0259 62.8614 84.3454 63.2633C83.931 63.5103 83.5356 63.9327 83.4687 64.2031C83.3814 64.5495 83.1401 64.7321 82.6501 64.8257C82.2677 64.8973 81.785 65.1443 81.5785 65.3737C81.3721 65.6032 81.1045 65.7303 80.9853 65.6558C80.8646 65.5813 80.2176 65.5403 79.5459 65.5637C78.531 65.6017 78.2533 65.5301 77.8942 65.1443C77.6136 64.8418 77.3097 64.719 77.0247 64.7935C76.7296 64.871 76.5158 64.776 76.369 64.5027C76.0986 63.9926 74.5966 63.9429 73.6981 64.4135C73.3651 64.5889 72.9144 64.7321 72.6992 64.7336C72.2543 64.7351 71.0751 63.5615 71.0751 63.1187C71.0751 62.8015 70.0254 62.176 69.4932 62.176C68.9684 62.176 67.5944 61.3576 67.433 60.9483C67.3138 60.6458 67.2832 60.6692 67.2716 61.0784C67.2629 61.3546 67.0171 61.8662 66.7263 62.214C66.1739 62.8731 66.0299 63.8421 66.4239 64.2396C66.5868 64.4033 66.4952 64.6269 66.1026 65.0215C65.6548 65.4717 65.4221 65.5506 64.8653 65.4454C64.4887 65.3737 64.0641 65.2232 63.9246 65.1121C63.7835 65.0025 63.5814 64.9645 63.4753 65.0317C63.2557 65.1677 62.7207 64.6079 62.5157 64.0277C62.4139 63.7398 62.2016 63.6579 61.6884 63.7076C61.3089 63.7442 60.9018 63.6594 60.7855 63.5191C60.6226 63.3233 60.2999 63.3671 59.4057 63.7091C58.7645 63.9546 57.9677 64.1446 57.6362 64.1315C57.2029 64.1154 57.0633 64.1928 57.1448 64.4033C57.2713 64.7336 56.9383 64.9046 55.8173 65.0829C55.3986 65.1487 54.99 65.2437 54.91 65.2934C54.8301 65.343 54.5436 65.1472 54.2732 64.8593C53.978 64.5451 53.491 64.3098 53.0475 64.2689C52.4223 64.2119 52.2827 64.0979 52.1155 63.5089C52.0065 63.1274 51.7898 62.8147 51.6314 62.8147C51.4525 62.8147 51.3435 62.5706 51.3435 62.1716C51.3435 61.6469 51.2068 61.4628 50.599 61.1719C50.0683 60.9176 49.7892 60.8811 49.6264 61.0433C49.2672 61.4043 48.597 61.112 48.2524 60.4427C47.9209 59.7952 47.3116 59.6067 47.3116 60.1489C47.3116 60.3257 47.1692 60.469 46.9947 60.469C46.7446 60.469 46.6763 60.1767 46.6763 59.1215C46.6763 58.3805 46.5265 57.2668 46.3433 56.6486C46.1601 56.029 46.054 55.478 46.1092 55.4224C46.163 55.3684 45.9784 55.0761 45.6992 54.7735C45.0696 54.091 45.0653 53.9478 45.6672 53.7534C46.0831 53.6204 46.0351 53.578 45.3081 53.4363C44.7047 53.3179 44.3892 53.353 44.1813 53.562C43.8919 53.8528 43.085 53.8411 42.3609 53.5356C42.057 53.4085 42.0338 53.334 42.2548 53.1966C42.4758 53.0592 42.4452 52.9525 42.1123 52.6997C41.8797 52.5228 41.5729 52.3752 41.4318 52.3723C41.2894 52.3679 41.2268 52.2203 41.2952 52.0449C41.3839 51.8111 41.2675 51.7249 40.8633 51.7249C40.3356 51.7249 40.1247 51.3434 40.4635 51.0014C40.5478 50.9167 40.638 50.5177 40.6642 50.1128C40.702 49.5122 40.6365 49.3792 40.2992 49.3792C40.0724 49.3792 39.7002 49.1921 39.4734 48.9641C39.1433 48.6323 38.9325 48.5856 38.4207 48.7332C37.7213 48.9349 35.8196 48.5958 33.627 47.8768C32.9276 47.6473 32.2181 47.4602 32.0524 47.4602C31.8866 47.4602 31.5827 47.3068 31.3763 47.1182C31.1698 46.9312 30.911 46.8347 30.802 46.9019C30.4748 47.1051 30.357 48.1807 30.6231 48.5257C30.8354 48.8019 30.8194 48.8077 30.5097 48.5622C29.9441 48.1179 29.1619 48.3225 29.2215 48.8998C29.2797 49.442 28.7068 49.5648 28.2372 49.1132C28.0118 48.8939 27.9827 49.0021 28.0772 49.6992C28.3331 51.5641 28.3317 51.6036 27.9624 51.6781C27.7632 51.719 27.3939 51.5129 27.1423 51.2221C26.8894 50.9298 26.5666 50.7354 26.4226 50.791C26.0853 50.921 25.7305 50.4767 25.6375 49.8074C25.5924 49.4815 25.402 49.2462 25.1432 49.1965C24.9105 49.1512 24.5906 48.9276 24.4307 48.6996C24.2679 48.4657 24.0047 48.3371 23.8288 48.4043C23.6558 48.4716 23.2835 48.4672 23.0015 48.3956C22.6104 48.2977 22.4882 48.1237 22.4882 47.6619C22.4882 46.9239 22.1669 46.6769 21.8717 47.1884C21.706 47.4763 21.6711 47.3228 21.7249 46.5453C21.7831 45.7167 21.7205 45.4843 21.3919 45.3089C21.1709 45.1891 21.0037 44.9757 21.0212 44.8354C21.0997 44.2084 20.9776 44.0243 20.5254 44.0871C20.1692 44.1368 20.031 44.0345 19.9816 43.6823C19.922 43.2628 19.8231 43.2234 19.0801 43.3286C18.5902 43.3973 18.2441 43.3578 18.2441 43.2336C18.2441 43.1167 17.8385 43.0421 17.3427 43.067C16.6055 43.105 16.4296 43.1956 16.3758 43.5624C16.3394 43.8094 16.1693 44.0652 15.9963 44.1324C15.6503 44.2654 15.3798 43.7831 15.5499 43.3344C15.7564 42.7951 15.3944 42.5788 14.4915 42.7001C13.8052 42.7937 13.5842 42.9252 13.4897 43.3008C13.3661 43.7963 12.5155 44.2026 12.5155 43.767C12.5155 43.634 12.3643 43.7437 12.1797 44.0096C11.9223 44.3779 11.9005 44.5621 12.0852 44.7857C12.2727 45.0137 12.2407 45.1277 11.9441 45.2958C11.585 45.4989 11.5908 45.5413 12.0575 45.9783C12.3948 46.2954 12.5141 46.5877 12.4312 46.899C12.3643 47.1489 12.3091 47.4734 12.3076 47.6195C12.3047 47.7657 12.1608 47.8855 11.9863 47.8855C11.6024 47.8855 11.5603 48.647 11.931 48.8779C12.5213 49.2447 11.1081 49.2915 10.259 48.9334C9.49129 48.609 9.311 48.5987 8.81229 48.8589C8.49969 49.0226 8.17837 49.1468 8.0984 49.1351C7.42086 49.0401 7.20858 49.2038 7.2522 49.784C7.27837 50.1245 7.17805 50.5498 7.02974 50.7296C6.80583 51 6.83055 51.0935 7.17078 51.2762C7.39614 51.3975 7.6404 51.4355 7.71456 51.3624C7.78871 51.2879 7.84832 51.339 7.84832 51.4764C7.84832 51.624 7.50955 51.7249 7.01666 51.7249C6.1152 51.7249 6.169 51.6357 5.81569 53.6979C5.71246 54.3015 5.57869 54.4973 5.26464 54.4973C4.38063 54.4973 4.02877 54.1042 4.02877 53.1162C4.02877 52.6003 3.927 52.1136 3.80341 52.0362C3.67837 51.9587 3.59404 51.6416 3.61294 51.3303C3.7089 49.8541 3.60567 49.4873 2.99792 49.1395C2.49921 48.8545 2.37271 48.6133 2.27675 47.7613C2.21423 47.1928 2.0543 46.6915 1.92344 46.6476C1.60502 46.5409 1.05892 45.4521 1.05892 44.9231C1.05892 44.6892 0.878191 44.3706 0.657335 44.2157C0.314055 43.9731 0.237287 43.5522 0.127949 41.3147L0 38.6957L0.512375 39.251C0.963974 39.7406 1.07695 39.7742 1.46544 39.5302C1.82021 39.3066 1.99032 39.3051 2.332 39.5185C2.71294 39.7582 2.75656 39.7319 2.75656 39.2627C2.75656 38.9763 2.85107 38.681 2.96884 38.6094C3.08515 38.5364 3.18111 38.5554 3.18257 38.6489C3.18402 38.8228 4.17562 39.3548 4.49549 39.3548C4.81682 39.3548 4.66561 38.7366 4.29485 38.5276C3.96625 38.342 3.96189 38.3025 4.2585 38.1885C4.67578 38.0263 5.727 38.4107 5.727 38.7249C5.727 39.0362 6.6299 38.7497 6.85091 38.3683C6.94396 38.2075 7.15914 38.076 7.3278 38.076C7.49792 38.076 7.63604 37.9912 7.63604 37.8874C7.63604 37.7837 7.82651 37.6492 8.0606 37.5878C8.58402 37.449 8.63927 36.3514 8.16674 35.4409C7.99372 35.1062 7.90648 34.6122 7.97336 34.3433C8.07659 33.9312 7.99517 33.8303 7.46738 33.7134C6.92506 33.5936 6.84509 33.4869 6.88871 32.9374C6.91633 32.5866 7.14315 32.1087 7.39323 31.8734C7.93701 31.3648 7.94573 31.2727 7.51827 30.6574C7.20567 30.2102 7.2173 30.1722 7.72328 29.9778C8.0417 29.8565 8.3194 29.5379 8.40519 29.1974C8.52587 28.7122 8.42263 28.5032 7.75527 27.8879L6.95995 27.1572L7.55026 26.5375C8.24816 25.8067 8.39792 25.7775 8.54622 26.346C8.62764 26.6588 8.83556 26.7728 9.32554 26.7728C9.76173 26.7728 9.94493 26.6895 9.85042 26.536C9.64687 26.2057 10.1732 24.6273 10.6777 24.0573C10.9089 23.7943 11.2738 23.5239 11.489 23.4567C11.8961 23.3266 12.0401 22.4175 11.6868 22.1998C11.5821 22.134 11.5428 21.8987 11.5995 21.678C11.6577 21.4559 11.601 21.2104 11.4745 21.1329C11.1299 20.9181 11.1953 20.3744 11.5661 20.3744C11.7435 20.3744 11.9979 20.1347 12.1302 19.8409C12.264 19.5472 12.4995 19.3075 12.6566 19.3075C12.8121 19.3075 12.9401 19.2154 12.9401 19.1014C12.9401 18.9889 13.1465 18.7857 13.3966 18.6513C13.7863 18.4423 13.8343 18.4569 13.7223 18.7492C13.5464 19.2096 13.9055 19.1906 14.2545 18.7214C14.4071 18.5168 14.9902 18.131 15.5499 17.8665C16.6564 17.3418 17.1813 17.4397 17.6102 18.2465C17.9911 18.9611 18.2601 18.7317 18.1147 17.8153C18.0202 17.2219 18.0551 16.9618 18.2296 16.9618C18.3692 16.9618 18.4171 16.8551 18.3372 16.7265C18.2427 16.5716 18.3299 16.5336 18.5902 16.6154C19.4335 16.8829 21.3134 17.1752 22.1843 17.1752C23.0945 17.1752 23.8884 16.7002 23.6441 16.3027C23.4173 15.9344 23.7779 15.2825 24.249 15.2109C24.5063 15.1715 24.6924 15.0209 24.6633 14.8777C24.6343 14.733 24.8015 14.6161 25.0341 14.6161C25.2958 14.6161 25.4587 14.4729 25.4601 14.2434C25.4616 13.8839 26.315 13.3358 26.8748 13.3358C27.0246 13.3358 27.3139 13.0728 27.5189 12.7498C28.0336 11.9416 28.4436 11.6449 29.0659 11.6332C29.8089 11.62 30.0517 11.4111 30.2175 10.6438C30.3381 10.0811 30.4806 9.95686 31.1247 9.85164C31.6845 9.75956 32.0393 9.83702 32.4624 10.1396C32.7793 10.3661 33.0861 10.5035 33.1428 10.445C33.201 10.388 33.3755 10.4932 33.5296 10.6818C33.7142 10.9054 33.7375 11.072 33.595 11.167C33.31 11.3555 33.0832 12.2704 33.3217 12.2704C33.4234 12.2704 33.6212 12.4852 33.7608 12.7483C34.0734 13.3358 34.0181 17.789 33.6939 18.1836C33.5703 18.3312 33.1138 18.5607 32.6776 18.6922C32.0233 18.888 31.7921 18.8705 31.3661 18.5899C30.5911 18.0798 29.9034 15.9198 29.9092 14.0184C29.9121 13.4089 29.5501 13.596 29.2288 14.3706C28.9249 15.1042 28.9118 15.1612 28.8798 15.7751C28.8624 16.1141 28.6879 16.3436 28.3753 16.4386C27.5553 16.69 26.9432 17.4105 26.9432 18.1295C26.9432 18.4964 26.8297 18.9114 26.6887 19.0517C26.5215 19.2198 26.5128 19.3075 26.664 19.3075C26.7905 19.3075 26.9446 19.5004 27.0057 19.7342C27.1293 20.2107 27.6745 20.3042 27.9391 19.895C28.0336 19.7474 28.1107 19.3893 28.1107 19.1C28.1107 18.7697 28.2474 18.5431 28.4756 18.4978C28.7679 18.4408 28.8362 18.5709 28.8144 19.1467C28.7606 20.5951 29.758 21.3141 30.1709 20.123C30.3934 19.4829 30.4021 19.4799 31.5784 19.6276C32.2937 19.7182 32.8651 19.9155 33.0207 20.1288C33.1661 20.3262 33.1923 20.5118 33.0803 20.5527C32.7473 20.6725 33.0948 21.0145 33.5485 21.0145C34.0588 21.0145 34.5066 20.6053 34.6142 20.0397C34.6579 19.8088 34.8992 19.5983 35.1638 19.5603C35.4226 19.5223 35.8181 19.2578 36.042 18.9728C36.2994 18.6425 36.5742 18.4993 36.7879 18.5826C37.1863 18.736 37.2023 18.8705 36.9129 19.6378C36.7486 20.0689 36.6309 20.1522 36.4244 19.9798C35.9461 19.5808 35.27 19.9286 35.1682 20.6258C35.0461 21.4603 35.5171 21.9528 36.2601 21.7657C37.5861 21.434 39.3076 21.5845 39.8354 22.0785C40.1 22.3255 40.3428 22.4146 40.4184 22.2919C40.4897 22.1749 40.7485 22.0799 40.9928 22.0799C41.4217 22.0799 41.4246 22.0946 41.0567 22.5023C40.7383 22.8575 40.7209 22.9802 40.9549 23.2638C41.1251 23.4684 41.4144 23.5546 41.6979 23.4844C41.9902 23.4099 42.2868 23.5078 42.5049 23.749C42.7186 23.9872 43.0981 24.1143 43.5066 24.0851C44.0999 24.0442 44.1537 24.0895 44.0417 24.5382C43.9356 24.962 43.9908 25.0292 44.4037 24.9854C45.1045 24.9094 45.4026 24.6741 45.4026 24.1933C45.4026 23.4289 45.9915 23.4976 46.7751 24.3526C47.5181 25.1637 47.8758 25.8506 47.6679 26.0596C47.6083 26.1195 47.7464 26.3548 47.9732 26.5828C48.2 26.8123 48.4428 27.2843 48.5126 27.6322C48.581 27.98 48.7583 28.265 48.9037 28.265C49.3414 28.265 49.6918 27.6775 49.5406 27.1996C49.4621 26.9511 49.5129 26.6135 49.654 26.4425C49.8343 26.2233 49.8401 26.1327 49.6714 26.1327C49.2978 26.1327 49.3937 25.5057 49.859 24.9109C50.0916 24.6127 50.2821 24.1421 50.2821 23.8644C50.2821 23.5064 50.4028 23.3602 50.6965 23.3602C50.9233 23.3602 51.5645 22.9276 52.1199 22.4C52.6768 21.8724 53.1522 21.4413 53.1784 21.4413C53.2045 21.4413 53.4706 21.5348 53.7701 21.6488C54.5044 21.9294 54.4768 22.647 53.696 23.5809C53.2482 24.1173 53.1071 24.4709 53.1856 24.8714C53.2511 25.2134 53.1638 25.5525 52.9545 25.7629C52.7683 25.95 52.6171 26.1867 52.6171 26.2905C52.6171 26.3943 52.4238 26.8809 52.1882 27.3705C51.9178 27.9332 51.8087 28.4594 51.8916 28.7955C51.9876 29.1799 51.9265 29.3655 51.6721 29.4634C51.4772 29.5379 51.3711 29.7352 51.4336 29.8989C51.5034 30.0831 51.3464 30.276 51.0207 30.4002C50.7314 30.5098 50.4944 30.6925 50.4944 30.8036C50.4944 30.9147 50.1861 31.1617 49.8081 31.3502C49.1698 31.6703 49.1044 31.6688 48.8543 31.3253C48.706 31.1222 48.5853 31.0345 48.5853 31.1295C48.5853 31.2245 48.4414 31.1836 48.2669 31.0374C48.075 30.8767 47.9485 30.8591 47.9485 30.9936C47.9485 31.5373 48.264 31.9289 48.9284 32.2066C49.5726 32.4785 49.7368 32.4668 50.599 32.0824C51.8465 31.5285 52.7116 30.7057 52.7654 30.0246C52.8221 29.3085 53.0504 29.1053 53.6306 29.2573C54.1729 29.4006 54.4913 30.3038 54.1293 30.6691C53.8326 30.9673 53.8123 31.8909 54.1016 31.8909C54.2179 31.8909 54.5146 32.0926 54.7588 32.3382L55.2037 32.7854L55.0467 32.2855C54.9595 32.0108 54.737 31.6746 54.5509 31.5373C54.2441 31.3122 54.247 31.2523 54.5814 30.8796C54.785 30.6545 54.9507 30.2628 54.9507 30.01C54.9507 29.4517 54.154 28.4798 53.6916 28.4754C53.5084 28.474 53.2365 28.3936 53.0853 28.2971C52.7436 28.0794 53.0693 27.1075 53.7163 26.4118C54.0289 26.0771 54.1278 25.741 54.0667 25.2192C53.9824 24.4958 54.2674 24.0003 54.7661 24.0003C54.9071 24.0003 55.2212 23.8323 55.464 23.6262C55.8944 23.2638 55.8973 23.2638 55.5759 23.6803C55.3942 23.9141 55.2197 24.4169 55.1877 24.7969C55.1412 25.361 55.2314 25.5334 55.6777 25.7381C55.9772 25.8754 56.223 26.0684 56.223 26.1663C56.223 26.2657 56.364 26.346 56.5356 26.346C56.9354 26.346 56.7159 25.7044 56.1837 25.3201C55.7184 24.9839 55.6763 24.4271 56.1168 24.4271C56.2927 24.4271 56.4352 24.5221 56.4352 24.639C56.4352 24.7574 56.5894 24.8524 56.7784 24.8524C57.0125 24.8524 57.0881 24.7223 57.0139 24.4417C56.9369 24.1406 57.011 24.0383 57.2931 24.0588C57.5053 24.0749 57.6318 24.164 57.5751 24.2576C57.5184 24.3496 57.6188 24.4271 57.7976 24.4271C57.9779 24.4271 58.1843 24.6668 58.2585 24.962C58.3399 25.285 58.5915 25.5466 58.8997 25.6241C59.5162 25.7804 59.5554 26.0435 58.9811 26.194C58.6918 26.27 58.558 26.4849 58.558 26.8722C58.558 27.2288 58.6438 27.3837 58.7906 27.2931C58.9288 27.2069 58.9113 27.353 58.7456 27.6526C58.5929 27.9318 58.4969 28.2548 58.5347 28.3717C58.6147 28.6274 58.731 29.1623 58.7528 29.3845C58.7776 29.6198 59.4057 29.5803 59.4057 29.3436C59.4057 29.234 59.3141 29.0863 59.2021 29.0162C59.0713 28.9358 59.0713 28.6961 59.2021 28.3497C59.3141 28.0531 59.4057 27.5225 59.4057 27.1703C59.4057 26.8196 59.5104 26.3358 59.6383 26.0961C59.8055 25.7804 59.8055 25.5963 59.6383 25.4268C59.5104 25.2996 59.4057 25.0555 59.4057 24.8875C59.4057 24.7179 59.2632 24.4739 59.0902 24.3438C58.8633 24.1728 58.811 23.8863 58.9026 23.3237L59.032 22.5418L60.4918 22.5783C61.5212 22.6032 61.9515 22.6938 61.9515 22.8881C61.9515 23.0898 62.0562 23.1059 62.3485 22.9481C62.6494 22.7873 62.7338 22.5286 62.6974 21.8856C62.6654 21.3141 62.7483 20.9984 62.9504 20.9195C63.1162 20.8567 63.199 20.7178 63.1336 20.6126C62.9664 20.3393 64.3331 19.7342 65.1197 19.7342C65.5152 19.7342 65.8336 19.6042 65.9063 19.4142C66.043 19.059 66.6202 18.9728 66.6202 19.3075C66.6202 19.4259 66.7918 19.5209 67.0011 19.5209C67.4766 19.5209 68.5249 19.0444 68.5278 18.8281C68.5293 18.7404 68.7517 18.6674 69.0236 18.6674C69.4453 18.6674 69.5034 18.5797 69.4278 18.055C69.3144 17.2775 70.3365 16.1843 70.8091 16.5789C71.0417 16.7733 71.0446 16.8507 70.8207 16.9969C70.5997 17.1401 70.6084 17.2176 70.8629 17.3856C71.0388 17.5011 71.3005 17.5961 71.4473 17.599C71.5927 17.6005 71.712 17.7934 71.712 18.0287C71.712 18.5271 72.0944 18.6001 72.2717 18.1354C72.4608 17.6399 73.3986 17.7568 74.207 18.3751C74.7682 18.8062 74.8714 18.9801 74.6504 19.1263C74.4178 19.2812 74.4338 19.3689 74.7347 19.6027C75.2683 20.0134 75.2015 20.3028 74.3654 21.1884C73.9583 21.6196 73.6239 22.0726 73.6239 22.1954C73.6225 22.3167 73.1921 22.8735 72.6672 23.4318C72.1409 23.9901 71.7149 24.563 71.7192 24.7033C71.7221 24.8465 71.8486 24.7954 72.0071 24.5864C72.1627 24.3803 72.4869 24.2137 72.7283 24.2137C72.9871 24.2137 73.2255 24.031 73.3084 23.7709C73.3898 23.5107 73.5672 23.3763 73.7402 23.4421C73.9016 23.5049 74.1721 23.4157 74.3422 23.2448C74.7449 22.8399 75.4515 22.8458 75.6071 23.2535C75.6755 23.4289 75.8339 23.5736 75.9619 23.5736C76.0884 23.5736 76.1393 23.4874 76.0753 23.3836C75.9037 23.1045 76.9128 22.5067 77.554 22.5067C77.8578 22.5067 78.2504 22.6514 78.4249 22.8268C78.8364 23.2389 79.8367 23.236 80.6378 22.8195C81.1743 22.5403 81.2339 22.4292 81.0406 22.0683C80.7294 21.4822 80.9562 21.2191 81.6512 21.3594C82.0409 21.4383 82.3317 21.3653 82.5149 21.1417C82.765 20.8391 82.8537 20.8494 83.4192 21.2542C83.7798 21.5129 83.9965 21.8271 83.9325 21.9981C83.8671 22.1676 83.9514 22.2933 84.1302 22.2933C84.4879 22.2933 84.5475 22.6295 84.2262 22.8297C83.9165 23.0211 84.216 23.4114 84.5693 23.274C84.7627 23.1994 84.8659 23.3091 84.8659 23.5853C84.8659 23.8484 85.0884 24.1012 85.4504 24.2503C86.2763 24.5908 86.8986 24.5674 86.8055 24.1976C86.7633 24.031 86.6965 23.5794 86.6572 23.1951C86.5961 22.609 86.6398 22.5286 86.9233 22.6879C87.4104 22.9612 88.0486 22.7347 88.0486 22.286C88.0486 21.7964 88.447 21.659 89.0621 21.9367C89.6727 22.2115 90.2688 21.7701 89.7454 21.431C89.4822 21.2615 89.507 21.206 89.8908 21.0993C90.3052 20.9853 90.3285 20.9122 90.1075 20.4065C89.9722 20.0952 89.773 19.7781 89.6669 19.7021C89.5593 19.6261 89.5491 19.3864 89.6436 19.1701C89.7367 18.9523 89.8036 18.7185 89.7919 18.6498C89.7788 18.5811 90.17 18.3181 90.66 18.0681C91.4 17.6882 91.5614 17.6648 91.6181 17.9264C91.7024 18.3093 92.0717 18.3473 92.1008 17.9746C92.1124 17.8285 92.1895 17.9483 92.2695 18.2421C92.4992 19.0678 92.8162 18.872 92.8889 17.8577C92.9427 17.1065 93.0503 16.9048 93.4865 16.7382C94.2658 16.44 94.4577 16.4868 94.3152 16.9413C94.196 17.3155 94.2541 17.3316 95.0785 17.1445C95.5685 17.0349 96.1123 16.9983 96.2868 17.0656C96.6343 17.2 97.5968 16.4035 97.5968 15.9811C97.5968 15.835 97.844 15.4199 98.1464 15.0589C98.6029 14.5138 98.8486 14.4027 99.6091 14.4027C100.224 14.4027 100.561 14.5065 100.644 14.7228C100.907 15.4112 102.556 14.885 102.465 14.1411C102.392 13.558 102.771 12.8682 103.267 12.6782C103.554 12.5686 103.898 12.1871 104.032 11.8305C104.205 11.3687 104.384 11.2094 104.648 11.2781C104.855 11.3321 105.08 11.281 105.153 11.1655C105.224 11.0486 105.46 10.9989 105.675 11.0559C105.892 11.1129 106.178 11.0252 106.313 10.8615C106.665 10.4362 106.19 9.92325 105.444 9.92325C104.608 9.92325 104.519 9.41465 105.224 8.65468C105.557 8.29807 105.785 8.00431 105.733 8.00431C105.679 8.00431 105.807 7.69594 106.018 7.32033C106.6 6.28267 107.421 5.62646 109.372 4.63849C109.723 4.46165 110.169 4.17666 110.367 4.00713C110.563 3.83614 110.816 3.75429 110.928 3.82298C111.04 3.89313 111.19 3.79667 111.261 3.6096C111.341 3.40207 111.524 3.32023 111.732 3.39915C111.984 3.49707 112.037 3.44007 111.937 3.17846C111.818 2.86717 111.953 2.8394 113.08 2.9417C114.092 3.03524 114.358 2.99578 114.358 2.75901C114.358 2.58217 114.141 2.45941 113.827 2.45941C113.212 2.45941 113.172 2.34249 113.628 1.88358C113.81 1.70089 113.91 1.42467 113.851 1.26975C113.79 1.10753 113.942 0.926302 114.21 0.842997C114.467 0.762615 114.94 0.511239 115.259 0.284708C115.873 -0.149355 115.851 -0.168356 115.928 0.80646C115.94 0.952609 116.045 1.14553 116.162 1.23322C116.295 1.33406 116.258 1.46852 116.062 1.5942C115.89 1.70528 115.8 1.84704 115.863 1.90989C115.975 2.02388 116.764 2.20072 117.288 2.22995C117.445 2.23872 117.499 2.35564 117.413 2.49595C117.31 2.66402 117.375 2.70055 117.612 2.60848C117.843 2.52079 117.965 2.58217 117.965 2.78678C117.965 2.95778 117.869 3.09954 117.753 3.09954C117.637 3.09954 117.561 3.17115 117.584 3.25884C117.609 3.34653 117.346 3.71629 116.998 4.0802C116.49 4.61511 116.299 4.69842 116.005 4.51134C115.72 4.33158 115.575 4.3725 115.325 4.70426C115.15 4.93518 115.005 5.34147 115.002 5.60454C114.996 5.96991 114.871 6.08537 114.477 6.08537C114.192 6.08537 113.9 5.98891 113.827 5.87199C113.632 5.55485 113.361 5.61331 113.211 6.00499C113.047 6.43467 113.688 6.96373 114.189 6.81173C114.45 6.73281 114.674 6.94473 114.99 7.57025C115.472 8.51875 115.351 9.07705 114.573 9.4965C114.311 9.6368 114.21 9.84433 114.294 10.0636C114.416 10.3836 114.447 10.3822 114.681 10.0606C114.82 9.86771 115.14 9.71134 115.389 9.71134C115.639 9.71134 115.844 9.60757 115.844 9.48334C115.844 9.21735 116.728 9.44534 116.932 9.76249C117.014 9.89256 117.116 9.88379 117.205 9.74056C117.385 9.4468 118.873 9.48919 119.069 9.79318C119.245 10.0636 118.444 10.9901 118.034 10.9901C117.685 10.9901 117.663 11.3511 118.006 11.4666C118.163 11.5192 118.279 12.1389 118.316 13.1064C118.346 13.9614 118.474 14.9742 118.599 15.3542C118.724 15.7356 118.864 16.2398 118.909 16.478C118.954 16.7148 119.088 17.257 119.204 17.6823C119.405 18.4145 119.39 18.4554 118.909 18.4554C118.276 18.4554 117.765 19.366 117.717 20.5761C117.689 21.3127 117.638 21.3974 117.366 21.1709C117.09 20.9414 117.064 21.0262 117.169 21.814C117.256 22.4731 117.214 22.7201 117.014 22.7201C116.559 22.7201 116.462 23.6247 116.859 24.1772C117.059 24.4563 117.461 25.1286 117.753 25.6723C118.281 26.6588 119.027 27.1236 119.027 26.4688C119.027 26.2832 119.181 26.1327 119.37 26.1327C119.602 26.1327 119.678 26.2627 119.605 26.5419C119.527 26.8473 119.642 26.992 120.058 27.1104C120.366 27.1981 120.699 27.2492 120.799 27.2259C120.898 27.2039 121.161 27.2419 121.382 27.3121C121.858 27.4641 121.924 28.0516 121.466 28.0516C121.29 28.0516 121.148 28.2314 121.148 28.4491C121.148 29.022 121.955 29.972 122.443 29.972C122.941 29.972 123.211 30.542 122.874 30.8811C122.742 31.014 122.632 31.4744 122.632 31.9041C122.632 32.4785 122.768 32.7854 123.141 33.0689C123.626 33.4343 123.637 33.4927 123.364 34.2717C123.134 34.9235 123.131 35.0902 123.345 35.0902C123.698 35.0902 124.543 37.0471 124.543 37.8641C124.543 38.703 123.996 38.7117 123.22 37.886C122.901 37.5469 122.236 37.0573 121.74 36.7972C119.97 35.8706 116.692 32.8278 116.692 32.1131C116.692 31.5446 116.25 30.6107 115.979 30.6107C115.845 30.6107 115.858 30.5098 116.013 30.3549C116.389 29.9764 116.341 27.7388 115.95 27.4115C115.774 27.2668 115.632 26.9716 115.632 26.7582C115.632 26.5448 115.531 26.3095 115.409 26.2335C115.254 26.137 115.254 26.0128 115.409 25.8243C115.569 25.6314 115.528 25.2675 115.267 24.5586C114.961 23.73 114.945 23.4888 115.171 23.1249C115.48 22.628 115.351 22.3781 114.288 21.412C113.904 21.0627 113.669 20.6375 113.669 20.2911C113.669 19.648 113.362 19.5691 112.956 20.1069C112.562 20.6287 112.594 20.959 113.086 21.4895C113.326 21.7496 113.509 22.2422 113.509 22.6265C113.509 23.0007 113.569 23.5999 113.64 23.958C113.743 24.4826 113.701 24.5996 113.422 24.5572C113.231 24.5294 112.929 24.297 112.75 24.0398C112.375 23.5005 112.024 23.4304 112.024 23.8937C112.024 24.069 111.872 24.2137 111.686 24.2137C111.501 24.2137 111.299 24.4052 111.238 24.639C111.177 24.8743 111.049 25.0658 110.956 25.0658C110.655 25.0658 110.488 26.346 110.746 26.6603C110.882 26.8225 111.046 27.5152 111.113 28.1978C111.18 28.8803 111.372 29.7104 111.539 30.0436C111.831 30.6253 111.859 30.6355 112.251 30.2775C112.491 30.0597 112.661 30.0085 112.661 30.1532C112.661 30.2892 112.423 30.6092 112.131 30.865C111.838 31.1193 111.6 31.4613 111.6 31.6235C111.6 31.8179 111.46 31.8749 111.194 31.7901C110.97 31.7185 110.732 31.7506 110.663 31.8617C110.595 31.9728 110.348 32.0137 110.115 31.9523C109.82 31.8749 109.691 31.9465 109.691 32.1862C109.691 32.3762 109.62 32.5194 109.531 32.5048C108.901 32.4054 108.606 32.5925 108.493 33.1654C108.363 33.8187 108.073 34.1533 107.282 34.5611C107.032 34.6897 106.84 34.9601 106.857 35.1632C106.879 35.4175 106.812 35.4687 106.643 35.3284C106.478 35.1895 106.148 35.3576 105.612 35.8501C104.423 36.9462 104.105 37.5338 104.259 38.3566C104.332 38.7468 104.32 39.1385 104.231 39.2262C104.144 39.3153 104.054 39.8648 104.033 40.4494C104.013 41.0326 103.894 41.6347 103.769 41.7853C103.644 41.9358 103.551 42.6855 103.562 43.4514C103.574 44.2172 103.478 45.0415 103.349 45.2841C103.219 45.5267 103.113 45.9666 103.113 46.2603C103.113 46.5541 103.017 46.8537 102.901 46.9268C102.785 46.9984 102.689 47.2439 102.689 47.4719C102.689 47.7876 102.837 47.8855 103.312 47.8855C103.655 47.8855 103.996 47.7905 104.067 47.6751C104.14 47.5581 104.426 47.7248 104.71 48.0477C105.12 48.5169 105.223 48.5593 105.229 48.2597C105.236 47.8066 105.659 47.754 105.659 48.2056C105.659 48.3824 105.803 48.5257 105.977 48.5257C106.152 48.5257 106.296 48.3824 106.296 48.2056C106.296 48.0302 106.438 47.8855 106.614 47.8855C106.976 47.8855 107.046 47.3418 106.71 47.1329C106.297 46.8771 106.97 46.348 107.556 46.4664C108.843 46.728 109.499 46.937 109.493 47.0832C109.489 47.1694 109.826 47.5815 110.243 48.001C110.719 48.4789 110.953 48.8852 110.874 49.0927C110.707 49.5312 111.148 50.9751 111.598 51.4603C111.795 51.6737 112.212 52.3591 112.525 52.9832C113.09 54.1159 113.092 54.1305 112.997 57.9874C112.895 62.0737 112.839 62.7796 112.574 63.2107C112.482 63.3583 112.465 63.7033 112.533 63.9766C112.693 64.6196 111.937 66.3456 111.206 67.0077C110.739 67.4301 110.495 67.4929 109.748 67.3921L108.85 67.2693L108.714 68.1345C108.603 68.8214 108.485 68.9997 108.138 68.9997C107.721 68.9997 107.718 68.9865 108.087 68.7147ZM118.303 58.1072C117.983 57.7462 117.772 57.3136 117.836 57.147C117.9 56.9804 117.866 56.843 117.762 56.843C117.545 56.843 116.904 55.6358 116.904 55.2281C116.904 55.0804 116.581 54.7589 116.187 54.5134C115.792 54.2679 115.344 53.7563 115.191 53.3763C115.038 52.9964 114.589 52.2525 114.194 51.7249C113.797 51.1973 113.343 50.4534 113.183 50.0719C112.991 49.6101 112.75 49.3792 112.459 49.3792C112.024 49.3792 111.175 48.6923 111.175 48.3386C111.175 48.2363 111.033 48.0317 110.857 47.8855C110.682 47.7408 110.54 47.4719 110.54 47.2907C110.54 47.108 110.376 46.7792 110.176 46.557C109.894 46.2443 109.874 46.1171 110.082 45.987C110.461 45.7517 110.155 44.6571 109.675 44.5314C109.455 44.4744 109.343 44.3063 109.41 44.1324C109.586 43.6691 109.893 43.7787 110.123 44.3882C110.237 44.6922 110.522 44.9918 110.754 45.0531C110.986 45.1131 111.175 45.2987 111.175 45.4653C111.175 45.6304 111.342 45.8263 111.548 45.8994C112.197 46.1332 112.468 46.4328 112.257 46.6886C112.006 46.994 112.567 47.6897 113.35 48.0419C113.672 48.1851 113.933 48.4014 113.933 48.5213C113.933 48.6411 114.038 48.739 114.166 48.739C114.294 48.739 114.986 49.2579 115.704 49.8907C116.423 50.5235 117.344 51.187 117.753 51.3653L118.496 51.6898L117.481 51.7073C116.247 51.7292 116.117 51.9675 116.587 53.3573C117.058 54.756 117.712 55.7761 118.141 55.7834C118.336 55.7878 118.682 55.9325 118.909 56.105C119.136 56.2774 119.479 56.3695 119.669 56.3081C120.129 56.1619 120.674 57.2508 120.267 57.5036C120.122 57.5942 119.915 57.6147 119.809 57.5489C119.704 57.4831 119.746 57.3472 119.905 57.2464C120.117 57.1119 120.123 57.0622 119.928 57.0608C119.47 57.0549 118.845 57.8295 119.048 58.151C119.572 58.9841 119.051 58.9519 118.303 58.1072ZM117.346 57.394C117.336 57.1704 117.387 57.0432 117.456 57.1148C117.528 57.185 117.535 57.3691 117.474 57.5226C117.406 57.6936 117.356 57.6424 117.346 57.394ZM123.269 56.482C123.269 55.8755 123.374 55.5686 123.612 55.478C123.903 55.3654 123.932 55.4634 123.807 56.1473C123.592 57.3224 123.269 57.5241 123.269 56.482ZM124.053 55.0015C123.755 54.7005 123.893 52.8414 124.225 52.7143C124.399 52.6471 124.543 52.4439 124.543 52.2656C124.543 52.0858 124.637 51.9382 124.755 51.9382C125.045 51.9382 125.021 52.1808 124.651 53.0738C124.478 53.4918 124.389 53.977 124.456 54.1524C124.598 54.5251 124.27 55.2178 124.053 55.0015ZM125.194 50.7252C125.186 50.3496 125.274 49.9842 125.391 49.9126C125.645 49.7548 125.645 50.3832 125.391 50.978C125.238 51.3376 125.206 51.2981 125.194 50.7252ZM125.849 47.4602C125.849 47.1665 125.897 47.0466 125.956 47.1928C126.014 47.3389 126.014 47.5801 125.956 47.7262C125.897 47.8724 125.849 47.7525 125.849 47.4602ZM104.705 46.3933C104.632 46.2764 104.675 46.18 104.798 46.18C104.922 46.18 105.022 46.2764 105.022 46.3933C105.022 46.5103 104.98 46.6067 104.929 46.6067C104.878 46.6067 104.776 46.5103 104.705 46.3933ZM125.066 43.6107C124.872 43.2935 125.027 43.181 125.367 43.3929C125.549 43.5054 125.571 43.615 125.428 43.7042C125.308 43.7787 125.145 43.7363 125.066 43.6107ZM124.755 42.1272C124.755 42.0103 124.85 41.9139 124.968 41.9139C125.084 41.9139 125.178 42.0103 125.178 42.1272C125.178 42.2456 125.084 42.3406 124.968 42.3406C124.85 42.3406 124.755 42.2456 124.755 42.1272ZM124.526 40.9551C124.507 40.8382 124.505 40.6657 124.52 40.5737C124.536 40.4801 124.456 40.2317 124.344 40.0198C124.204 39.7582 124.217 39.555 124.383 39.3884C124.688 39.0815 125.04 39.064 124.856 39.365C124.78 39.4878 124.813 39.7026 124.931 39.8458C125.077 40.0212 125.05 40.2726 124.851 40.6351C124.69 40.9288 124.543 41.072 124.526 40.9551ZM110.751 32.4361C110.751 32.3849 110.847 32.2826 110.963 32.211C111.081 32.1379 111.175 32.1803 111.175 32.3045C111.175 32.4288 111.081 32.5311 110.963 32.5311C110.847 32.5311 110.751 32.4887 110.751 32.4361ZM45.4026 22.7201C45.4026 22.3679 45.4986 22.0799 45.6149 22.0799C45.7312 22.0799 45.8272 22.3679 45.8272 22.7201C45.8272 23.0723 45.7312 23.3602 45.6149 23.3602C45.4986 23.3602 45.4026 23.0723 45.4026 22.7201ZM74.8045 21.8929C74.7391 21.7862 74.8278 21.643 75.0023 21.5757C75.1768 21.5085 75.3192 21.5407 75.3192 21.6473C75.3192 21.9367 74.9412 22.1165 74.8045 21.8929ZM53.9199 21.0335C53.7062 20.9005 53.696 20.8143 53.8806 20.6988C54.1714 20.5191 54.391 20.6784 54.2834 20.9941C54.2383 21.1227 54.0885 21.1387 53.9199 21.0335ZM44.4953 20.3919C44.0359 19.8424 43.9588 19.6217 44.1464 19.3937C44.4633 19.0108 44.2133 18.0287 43.8003 18.0287C43.5488 18.0287 43.5255 17.9381 43.6957 17.6209C43.8309 17.3652 44.0591 17.2526 44.3092 17.3184C44.552 17.3812 44.9388 17.2073 45.2979 16.8726C45.9769 16.2398 46.2212 16.2004 46.794 16.633C47.1895 16.9326 47.1706 16.9764 46.2793 17.7802C45.4404 18.5373 45.3386 18.7346 45.218 19.857L45.0842 21.0978L44.4953 20.3919ZM39.1797 20.2326C38.9325 19.9842 39.0241 19.7562 39.4646 19.5194C39.8063 19.3367 39.9197 19.3601 40.0259 19.6407C40.2032 20.104 39.5243 20.579 39.1797 20.2326ZM88.6331 17.5479C88.3889 16.8785 88.9792 16.5482 89.8355 16.8785C90.3154 17.0641 90.2499 17.2833 89.6305 17.5669C88.9428 17.8825 88.7538 17.8796 88.6331 17.5479ZM47.3116 16.535C47.1575 16.2457 47.1561 16.1083 47.3044 16.1083C47.4251 16.1083 47.5007 15.9884 47.4716 15.8423C47.4411 15.6932 47.5821 15.6026 47.79 15.6377C47.9936 15.6728 48.1608 15.6128 48.1608 15.5047C48.1608 15.3965 48.4472 15.1875 48.7976 15.0429C49.148 14.8967 49.4344 14.714 49.4344 14.6366C49.4344 14.5591 49.6801 14.4758 49.9811 14.4495C50.2821 14.4246 50.6834 14.318 50.8724 14.2113C51.0774 14.0958 51.4191 14.0973 51.7215 14.2127C51.9992 14.318 52.3191 14.3487 52.431 14.2785C52.543 14.2098 52.7756 14.2697 52.9486 14.4144C53.1551 14.5869 53.6567 14.6336 54.436 14.5533C55.3564 14.4568 55.637 14.4992 55.7315 14.7462C55.797 14.9186 55.7911 15.1218 55.7155 15.1963C55.512 15.4024 53.5026 15.6245 53.2525 15.4696C53.1333 15.3936 52.5343 15.417 51.9236 15.5193C51.3129 15.6231 50.5409 15.7341 50.2094 15.7678C49.8779 15.8014 49.5435 15.9154 49.4679 16.0221C49.3908 16.1287 49.0898 16.2413 48.7976 16.2734C48.5054 16.3041 48.1608 16.4722 48.0314 16.6461C47.7188 17.0656 47.5835 17.0451 47.3116 16.535ZM87.8364 16.8683C87.8364 16.8156 87.9323 16.7148 88.0486 16.6417C88.1664 16.5701 88.2609 16.6125 88.2609 16.7367C88.2609 16.861 88.1664 16.9618 88.0486 16.9618C87.9323 16.9618 87.8364 16.9194 87.8364 16.8683ZM5.79242 16.4912C5.67611 16.3392 5.52053 16.0469 5.44784 15.8423C5.37078 15.6231 5.09889 15.4696 4.79065 15.4696C4.50276 15.4696 4.2047 15.3688 4.13055 15.2475C4.04186 15.1028 4.1858 15.0736 4.54202 15.1642C4.9942 15.2782 5.09016 15.227 5.09016 14.8748C5.09016 14.106 6.13265 14.1134 6.14719 14.8821C6.1501 14.9698 6.29985 15.0429 6.4816 15.0429C6.73459 15.0429 6.79711 15.2314 6.74767 15.8408C6.67788 16.6797 6.19372 17.01 5.79242 16.4912ZM85.984 16.2311C85.4664 15.9899 85.0259 15.0005 85.2163 14.5036C85.3588 14.1294 85.5944 14.109 86.1716 14.4203C86.6761 14.6906 86.964 14.5065 86.6034 14.1426C86.1992 13.7363 86.301 13.6588 87.2911 13.6135C88.2391 13.5711 88.8614 13.9453 88.5852 14.394C88.37 14.7433 87.6692 14.6541 87.4103 14.2434C87.2519 13.9906 87.2024 13.973 87.2577 14.1893C87.3028 14.3647 87.5514 14.6161 87.8087 14.7462L88.2769 14.9829L87.6852 15.3805C87.3609 15.5982 87.0105 15.7517 86.9087 15.721C86.807 15.6903 86.7779 15.8043 86.8433 15.9753C86.9989 16.383 86.5787 16.5073 85.984 16.2311ZM68.9378 14.9142C69.1806 14.4612 69.3784 13.9672 69.3784 13.8196C69.3784 13.6705 69.4729 13.5492 69.5906 13.5492C69.707 13.5492 69.8029 13.6457 69.8029 13.7626C69.8029 13.8795 69.9047 13.976 70.0297 13.976C70.399 13.976 70.9137 14.603 70.796 14.9113C70.7364 15.0677 70.4165 15.2548 70.0864 15.3264C69.7549 15.3995 69.262 15.5222 68.9902 15.5997L68.4973 15.74L68.9378 14.9142ZM67.2032 14.068C66.4777 13.672 66.4239 12.8594 67.0913 12.3888C67.6932 11.965 67.9724 11.965 67.811 12.3903C67.7136 12.6431 67.7819 12.6928 68.0887 12.5949C68.5729 12.4399 68.8404 12.7892 68.6223 13.2935C68.5351 13.4922 68.4842 13.824 68.5104 14.03C68.5671 14.4919 68.0102 14.508 67.2032 14.068ZM89.0373 13.387C88.9152 13.1838 89.3354 12.8141 89.7469 12.7629C89.9213 12.741 90.3023 12.6519 90.5931 12.5656C91.1063 12.4107 91.1121 12.4209 90.7952 12.9018C90.4768 13.3841 89.2409 13.7246 89.0373 13.387ZM65.9121 12.5539C65.6548 12.2953 65.7653 12.0687 66.0895 12.1929C66.264 12.2602 66.4079 12.4019 66.4079 12.5057C66.4079 12.7293 66.1157 12.7585 65.9121 12.5539ZM66.3309 11.737C66.1637 11.2985 66.5373 10.5634 66.9284 10.5634C67.0884 10.5634 67.2629 10.4435 67.3152 10.2974C67.4417 9.94079 67.6191 10.1264 67.7717 10.7782C67.9288 11.4476 67.7209 11.772 67.0171 11.9489C66.6129 12.0512 66.4297 11.9942 66.3309 11.737ZM103.75 10.6935C103.75 10.6467 103.892 10.5546 104.068 10.4874C104.243 10.4187 104.387 10.4567 104.387 10.5707C104.387 10.6847 104.243 10.7768 104.068 10.7768C103.892 10.7768 103.75 10.7388 103.75 10.6935ZM56.3175 7.7734C56.2389 7.64478 56.2593 7.45771 56.3611 7.35541C56.6112 7.10257 57.1637 7.4694 56.9805 7.76755C56.7958 8.06862 56.5021 8.07154 56.3175 7.7734ZM57.4966 7.79093C57.4966 7.67401 57.6929 7.57755 57.9328 7.57755C58.1742 7.57755 58.3108 7.67401 58.2396 7.79093C58.1669 7.90785 57.9706 8.00431 57.802 8.00431C57.6333 8.00431 57.4966 7.90785 57.4966 7.79093ZM55.6952 6.30021C55.6196 6.18037 55.7053 6.14383 55.8944 6.21691C56.2622 6.35867 56.3291 6.51213 56.0238 6.51213C55.9133 6.51213 55.7664 6.41713 55.6952 6.30021ZM53.1464 5.44524C52.4936 5.27863 52.6142 5.20555 53.6102 5.16755C53.9228 5.15586 54.2179 5.26255 54.2645 5.40286C54.3575 5.68346 54.1133 5.69223 53.1464 5.44524ZM52.7582 4.66334C52.6797 4.58442 52.6171 4.44996 52.6171 4.36373C52.6171 4.15766 53.4372 4.37396 53.5869 4.61803C53.7207 4.83433 52.969 4.87525 52.7582 4.66334ZM104.848 3.84198C104.494 3.06154 104.537 2.72102 105.022 2.45941C105.492 2.20803 105.508 2.23872 105.451 3.31292C105.4 4.30235 105.154 4.51719 104.848 3.84198Z" fill="white"/>
</g>
<defs>
<clipPath id="clip0">
<rect width="126" height="69" fill="white"/>
</clipPath>
</defs>
</svg>
