<svg width="170" height="140" viewBox="0 0 170 140" fill="none" xmlns="http://www.w3.org/2000/svg">
<g clip-path="url(#clip0)">
<path fill-rule="evenodd" clip-rule="evenodd" d="M119.786 35.0619V53.8278C119.786 69.4175 38.9014 69.4175 38.9014 53.8278V33.6196L57.8434 43.5626C60.2731 44.5904 62.9516 44.8891 65.5496 44.4219L119.709 35.0619H119.786ZM133.087 27.3131V42.8414C132.818 42.8678 132.564 42.9785 132.362 43.1577C132.159 43.337 132.02 43.5754 131.962 43.8388L131.808 45.8949C131.808 47.0611 132.871 47.5674 132.81 48.4881L132.671 50.3447C132.671 51.0659 131.854 51.695 131.808 52.6003L129.08 70.0313C130.128 72.1181 140.593 72.1641 141.749 70.0313L139.098 52.631C139.098 51.6797 138.22 51.0966 138.173 50.3601L138.05 48.4574C138.05 47.4754 139.175 47.2605 139.114 45.9256L138.944 43.8388C138.89 43.5644 138.745 43.3159 138.533 43.1325C138.321 42.9491 138.053 42.8413 137.773 42.8261C137.773 27.1444 137.773 45.1124 137.773 28.2031L169.23 22.7559C170.093 22.6178 170.293 22.0041 169.322 21.6665L127.708 9.59066L96.2667 0.460889C94.7708 0.00498516 93.1941 -0.125831 91.643 0.0772854L51.216 3.48369L1.01743 7.67264C-0.523824 7.85677 -0.153924 9.02292 0.84789 9.43722L24.352 21.7125L59.5696 40.1255C61.2993 40.778 63.1752 40.9477 64.9948 40.6165L129.558 29.4613C129.563 29.1152 129.438 28.7795 129.207 28.5209C128.976 28.2623 128.655 28.0996 128.309 28.065L78.0954 20.0861C73.7182 19.3649 74.5197 16.25 77.0628 16.6336L131.438 25.4719C131.896 25.5144 132.32 25.728 132.626 26.0696C132.932 26.4112 133.097 26.8555 133.087 27.3131ZM89.6394 137.239C88.936 135.08 88.6692 132.803 88.8544 130.541C89.0395 128.279 89.673 126.075 90.7182 124.058L6.59676 97.2057C3.34472 101.41 2.55868 106.965 6.31933 112.857L91.3193 140.001L144.986 116.432C146.434 115.788 146.203 114.898 144.446 114.253L143.028 113.808L89.6394 137.239ZM92.4753 86.4495L124.934 72.1948L127.4 56.2062L123.516 54.9633C121.728 68.3127 88.6221 69.2947 79.3592 69.2947C69.8497 69.2947 35.1253 68.2667 35.1253 53.8278V47.8436L8.33837 59.5972L92.4753 86.4495ZM89.6702 100.382C88.9664 98.2256 88.6993 95.9516 88.8845 93.6917C89.0697 91.4318 89.7035 89.231 90.7491 87.2167L6.61217 60.3491C3.36013 64.5534 2.57409 70.108 6.33474 76.0001L91.3347 103.144L145.001 79.5753C146.542 78.9309 146.219 78.0409 144.477 77.3965L143.059 76.9515L89.6548 100.382H89.6702ZM89.2849 118.795C88.5844 116.638 88.3192 114.364 88.5043 112.105C88.6895 109.846 89.3214 107.645 90.3638 105.63L6.16521 78.7007C2.97482 82.859 2.18878 88.4596 5.96484 94.3517L90.934 121.496L144.631 97.9269C146.08 97.2978 145.833 96.3925 144.092 95.7634L142.674 95.3031L89.2695 118.734L89.2849 118.795Z" fill="url(#paint0_linear)"/>
</g>
<defs>
<linearGradient id="paint0_linear" x1="-3.92729" y1="48.6285" x2="150.785" y2="57.0595" gradientUnits="userSpaceOnUse">
<stop stop-color="#A9A4AE"/>
<stop offset="0.528153" stop-color="#EAE9F1"/>
<stop offset="1" stop-color="#ADA8B4"/>
</linearGradient>
<clipPath id="clip0">
<rect width="170" height="140" fill="white"/>
</clipPath>
</defs>
</svg>
