<svg width="150" height="150" viewBox="0 0 150 150" fill="none" xmlns="http://www.w3.org/2000/svg">
<path fill-rule="evenodd" clip-rule="evenodd" d="M102.706 50.3719C101.64 49.5382 100.386 48.9747 99.0529 48.7296C97.7196 48.4844 96.3464 48.5651 95.0512 48.9645C96.4847 47.5414 98.2682 46.5176 100.224 45.9954C100.964 46.475 101.58 47.121 102.023 47.8811C102.466 48.6413 102.724 49.4944 102.775 50.3719H102.706ZM110.189 41.8936C108.655 33.6899 89.4995 39.1304 79.8271 35.6293C79.6374 38.032 82.7926 41.8593 85.8271 43.2837C80.6547 47.746 76.0167 56.7391 75.0857 67.7059C74.1547 56.7391 69.5167 47.746 64.3616 43.2837C67.3788 41.8593 70.534 38.032 70.3443 35.6293C60.6891 39.0618 41.5167 33.6899 39.9823 41.8936C39.8606 42.8023 39.923 43.726 40.1659 44.6103C40.4087 45.4946 40.827 46.3216 41.396 47.0423C41.688 46.2831 42.189 45.6212 42.8416 45.1325C43.4942 44.6438 44.272 44.348 45.0857 44.2792C58.6202 42.254 69.8616 62.9863 59.6891 71.3616C59.6576 71.3893 59.6352 71.4259 59.6251 71.4667C59.615 71.5074 59.6177 71.5502 59.6326 71.5893C59.6476 71.6285 59.6743 71.6622 59.709 71.6859C59.7438 71.7096 59.785 71.7222 59.8271 71.722H90.3443C90.3879 71.726 90.4317 71.7162 90.4694 71.694C90.507 71.6717 90.5366 71.6381 90.5538 71.598C90.5711 71.558 90.5751 71.5135 90.5654 71.471C90.5556 71.4285 90.5325 71.3902 90.4995 71.3616C80.3098 62.9863 91.5857 42.1854 105.103 44.2792C105.916 44.3431 106.694 44.6372 107.345 45.1268C107.995 45.6164 108.492 46.2811 108.775 47.0423C109.344 46.3216 109.763 45.4946 110.006 44.6103C110.248 43.726 110.311 42.8023 110.189 41.8936ZM113.482 23.0149C114.844 27.4085 112.241 32.8833 104.758 33.3124C104.733 32.9581 104.733 32.6025 104.758 32.2483C111.034 32.2483 113.896 25.5206 108.965 20.9554C111.62 12.6487 115.637 20.9554 119.034 23.0835C120.965 24.2849 126.258 23.5641 126.672 25.9497C127.275 29.3822 121.172 29.3821 123.879 36.7105C122.517 35.6636 117.482 32.7803 118.706 38.2895C118.098 38.1057 117.558 37.744 117.158 37.2513C116.759 36.7585 116.517 36.1575 116.465 35.5263C116.465 32.0938 121.189 30.532 121.189 27.2197C121.189 22.294 113.275 22.3112 113.517 23.0835L113.482 23.0149ZM26.1202 36.6762C28.8443 29.262 22.6719 29.3135 23.3443 25.9153C23.7581 23.5297 29.0512 24.1991 30.965 23.0492C34.4133 20.9211 38.396 12.6144 41.0512 20.9211C36.1029 25.4863 38.9823 32.214 45.2581 32.214C45.2834 32.5682 45.2834 32.9238 45.2581 33.278C37.7754 32.9176 35.1547 27.4428 36.534 22.9805C36.7754 22.2082 28.8616 22.1911 28.8616 27.1167C28.8616 30.4291 33.5857 31.9908 33.5857 35.4233C33.5323 36.0567 33.2881 36.6592 32.8852 37.1522C32.4822 37.6452 31.9392 38.0057 31.3271 38.1865C32.5512 32.6773 27.4995 35.5606 26.1547 36.6076L26.1202 36.6762ZM47.396 50.4062C47.4478 49.5182 47.7109 48.6552 48.1635 47.8883C48.6162 47.1215 49.2455 46.4727 49.9995 45.9954C51.9571 46.5123 53.742 47.5368 55.1719 48.9645C53.8794 48.5665 52.5092 48.4867 51.1788 48.7318C49.8485 48.9769 48.5977 49.5397 47.534 50.3719L47.396 50.4062ZM78.6547 4.42792L74.9995 0L71.3443 4.42792L74.9995 9.09611L78.6547 4.42792ZM99.4995 17.8318L96.896 14.6911L94.3098 17.8318L96.896 20.9211L99.4995 17.8318ZM120.568 108.896L117.275 105.463L113.982 108.896L117.241 111.934L120.534 108.896H120.568ZM55.6891 17.8318L53.0857 14.6911L50.4995 17.8318L53.0857 20.9211L55.6891 17.8318ZM48.2581 33.278H57.9305C66.0857 33.278 69.7409 28.3009 70.8616 23.9931H79.1374C80.2409 28.3009 83.9133 33.278 92.0512 33.278H101.724C102.54 32.2045 103.25 31.055 103.844 29.8455C105.379 25.7609 103.431 23.8558 100.568 23.8558L96.896 27.2025L93.2064 23.873C90.3616 23.873 88.4133 25.778 89.9305 29.8627C90.2453 30.5431 90.6143 31.1974 91.034 31.8192C88.9364 31.5971 86.9615 30.7259 85.3873 29.3282C83.813 27.9305 82.7187 26.0766 82.2581 24.0275C83.4251 22.2084 84.4844 20.323 85.4305 18.381C87.7236 12.5286 84.7926 10.143 80.5167 10.143L74.9995 16.5789L69.4822 10.1087C65.1891 10.1087 62.2754 12.4943 64.5685 18.3467C65.5134 20.3004 66.5727 22.1972 67.7409 24.0275C67.2857 26.0855 66.1916 27.9488 64.6134 29.3534C63.0352 30.758 61.0531 31.6327 58.9478 31.8535C59.3804 31.2398 59.7501 30.5843 60.0512 29.897C61.5857 25.8124 59.6374 23.9073 56.7754 23.9073L53.0857 27.2368L49.4133 23.9073C46.5512 23.9073 44.6029 25.8124 46.1202 29.897C46.7251 31.1043 47.4408 32.2533 48.2581 33.3295V33.278ZM148.413 63.1751C140.034 67.0988 130.697 68.5405 121.517 67.3284C121.655 66.6648 121.775 65.9954 121.879 65.3204C131.241 64.2048 138.844 62.6259 143.689 59.9485C146.381 58.4347 148.405 55.972 149.362 53.0461C150.32 50.1201 150.141 46.9432 148.862 44.1419C148.841 44.1135 148.814 44.0904 148.782 44.0745C148.751 44.0586 148.716 44.0503 148.681 44.0503C148.645 44.0503 148.61 44.0586 148.579 44.0745C148.548 44.0904 148.52 44.1135 148.499 44.1419C141.521 51.8291 132.356 57.2172 122.224 59.5881C122.224 58.7986 122.12 58.0263 122.017 57.254C129.362 53.1007 136.534 48.3295 139.965 43.9531C145.137 37.3455 144.655 28.9188 139.741 24.611C139.691 24.5675 139.626 24.5436 139.56 24.5436C139.493 24.5436 139.429 24.5675 139.379 24.611C137.827 27.1682 123.275 50.5778 107.293 60.6522L106.706 61.0297C106.603 61.0899 106.515 61.1737 106.45 61.2743C106.385 61.3749 106.345 61.4893 106.333 61.6083C106.321 61.7273 106.338 61.8473 106.382 61.9586C106.426 62.0698 106.496 62.1691 106.586 62.2483C107.517 63.0684 108.263 64.0746 108.777 65.2012C109.291 66.3279 109.561 67.5498 109.568 68.7872C109.507 70.9851 108.67 73.0913 107.204 74.7359C105.738 76.3805 103.736 77.4584 101.551 77.7803C98.568 78.2492 95.5151 77.99 92.6547 77.0252C92.6215 77.0145 92.5864 77.0116 92.552 77.0168C92.5175 77.022 92.4848 77.0352 92.4564 77.0552C92.4279 77.0751 92.4045 77.1014 92.3881 77.132C92.3716 77.1625 92.3625 77.1965 92.3616 77.2311V91.373C92.3749 91.4196 92.4032 91.4606 92.4421 91.4898C92.481 91.519 92.5284 91.5348 92.5771 91.5348C92.6258 91.5348 92.6732 91.519 92.7121 91.4898C92.7509 91.4606 92.7792 91.4196 92.7926 91.373C94.7409 86.2243 100.603 85.1259 103.137 85.1259C104.051 90.635 105.706 95.2002 107.844 97.6716C111.293 101.67 117.017 101.602 119.482 98.8387C119.507 98.8213 119.527 98.7981 119.541 98.7712C119.556 98.7444 119.563 98.7145 119.563 98.6842C119.563 98.6539 119.556 98.6241 119.541 98.5972C119.527 98.5703 119.507 98.5472 119.482 98.5297C118.034 97.7059 109.741 92.643 108.086 84.3364C108.736 84.1193 109.37 83.8554 109.982 83.5469C112.315 87.6067 115.665 90.995 119.706 93.381C124.879 95.9039 129.793 94.6854 131.931 90.9954C131.948 90.9646 131.958 90.9297 131.958 90.8941C131.959 90.8585 131.95 90.8234 131.932 90.7923C131.915 90.7612 131.89 90.7351 131.859 90.7166C131.829 90.698 131.794 90.6877 131.758 90.6865C128.448 90.4634 118.448 87.6144 114.189 80.6636C114.68 80.2204 115.147 79.7506 115.586 79.2563C120.076 82.7102 125.302 85.0938 130.862 86.2243C136.137 86.9451 142.12 85.2632 142.275 79.1533C142.275 79.1225 142.269 79.092 142.257 79.0638C142.244 79.0355 142.226 79.0101 142.204 78.9892C142.181 78.9682 142.154 78.9521 142.125 78.942C142.096 78.9319 142.065 78.9278 142.034 78.9302C140.155 79.0503 127.724 79.5824 118.879 74.5366C119.189 73.9531 119.465 73.3524 119.741 72.8204C119.741 72.8204 133.12 75.9611 139.448 74.9314C145.775 73.9016 149.448 69.2162 148.741 63.3982C148.731 63.3653 148.715 63.3349 148.693 63.3089C148.671 63.2828 148.643 63.2618 148.612 63.2472C148.581 63.2326 148.547 63.2247 148.513 63.2241C148.479 63.2235 148.445 63.2302 148.413 63.2437V63.1751ZM30.2581 72.7517C30.2581 72.7517 16.8788 75.8924 10.5512 74.8627C4.22363 73.8329 0.551212 69.1476 1.25811 63.3295C1.26467 63.2949 1.27935 63.2624 1.30095 63.2346C1.32255 63.2067 1.35046 63.1843 1.3824 63.1693C1.41435 63.1542 1.44941 63.1469 1.48475 63.1479C1.52008 63.1489 1.55467 63.1582 1.5857 63.1751C9.96746 67.0922 19.3022 68.5337 28.4823 67.3284C28.3271 66.659 28.2064 65.9897 28.1029 65.3204C18.7581 64.2048 11.1547 62.6259 6.30983 59.9485C3.62253 58.4351 1.60146 55.9754 0.644243 53.0533C-0.312976 50.1313 -0.137047 46.9585 1.13742 44.159C1.16001 44.1305 1.18881 44.1074 1.22166 44.0915C1.25452 44.0756 1.29056 44.0674 1.32707 44.0674C1.36359 44.0674 1.39963 44.0756 1.43248 44.0915C1.46534 44.1074 1.49414 44.1305 1.51673 44.159C8.48879 51.845 17.6486 57.2332 27.7754 59.6053C27.7754 58.8158 27.896 58.0435 27.9995 57.2712C20.6891 52.9977 13.4822 48.2265 10.0685 43.8501C4.89604 37.2426 5.3788 28.8158 10.2926 24.5252C10.3136 24.5 10.34 24.4797 10.3698 24.4658C10.3996 24.4518 10.4321 24.4446 10.465 24.4446C10.4979 24.4446 10.5304 24.4518 10.5602 24.4658C10.59 24.4797 10.6164 24.5 10.6374 24.5252C12.2064 27.0824 26.7581 50.492 42.7236 60.5664L43.3271 60.9439C43.4309 61.0041 43.5188 61.0879 43.5837 61.1885C43.6486 61.289 43.6886 61.4035 43.7004 61.5225C43.7122 61.6415 43.6954 61.7615 43.6515 61.8728C43.6076 61.984 43.5378 62.0833 43.4478 62.1625C42.5146 62.9817 41.7652 63.9873 41.2483 65.1139C40.7314 66.2406 40.4587 67.4629 40.4478 68.7014C40.5131 70.9008 41.354 73.0073 42.823 74.6515C44.292 76.2958 46.2954 77.3731 48.4823 77.6945C51.4655 78.1634 54.5184 77.9042 57.3788 76.9394C57.4119 76.9287 57.4471 76.9258 57.4815 76.931C57.5159 76.9362 57.5487 76.9493 57.5771 76.9693C57.6056 76.9893 57.6289 77.0156 57.6454 77.0462C57.6618 77.0767 57.6709 77.1107 57.6719 77.1453V91.2872C57.6585 91.3338 57.6303 91.3748 57.5914 91.404C57.5525 91.4332 57.5051 91.449 57.4564 91.449C57.4077 91.449 57.3603 91.4332 57.3214 91.404C57.2825 91.3748 57.2543 91.3338 57.2409 91.2872C55.2754 86.1384 49.4305 85.04 46.896 85.04C45.965 90.5492 44.3271 95.1144 42.1891 97.5858C38.7409 101.585 33.0167 101.516 30.534 98.7529C30.512 98.7335 30.4943 98.7098 30.4823 98.6831C30.4702 98.6565 30.4639 98.6276 30.4639 98.5984C30.4639 98.5692 30.4702 98.5403 30.4823 98.5137C30.4943 98.487 30.512 98.4633 30.534 98.4439C31.9822 97.6201 40.2754 92.5572 41.9305 84.2506C41.28 84.0335 40.6461 83.7696 40.034 83.4611C37.7012 87.5209 34.3508 90.9091 30.3098 93.2952C25.0512 95.8181 20.2236 94.5995 18.0857 90.9096C18.0678 90.8788 18.0582 90.8439 18.0579 90.8083C18.0576 90.7727 18.0666 90.7376 18.084 90.7065C18.1013 90.6754 18.1265 90.6493 18.157 90.6307C18.1875 90.6122 18.2224 90.6018 18.2581 90.6007C21.5167 90.3432 31.5167 87.4943 35.7754 80.5435C35.2926 80.0973 34.8098 79.6339 34.3616 79.1362C29.8773 82.5892 24.6573 84.973 19.1029 86.1041C13.8098 86.8249 7.82707 85.143 7.68914 79.0332C7.71756 78.9888 7.76084 78.9558 7.81132 78.9401C7.86181 78.9244 7.91624 78.927 7.96501 78.9474C9.84432 79.0675 22.2754 79.5995 31.1202 74.5538C30.8098 73.9702 30.534 73.3696 30.2581 72.8375V72.7517ZM117.241 116.413L122.12 112.586C123.528 113.379 124.67 114.567 125.406 116.001C126.141 117.435 126.438 119.052 126.258 120.652C125.949 122.603 124.988 124.393 123.53 125.733C122.072 127.072 120.202 127.882 118.224 128.032C116.563 128.208 114.885 127.933 113.368 127.239C111.85 126.544 110.55 125.454 109.603 124.085C106.844 121.356 99.896 119.331 94.2409 119.331C94.06 119.345 93.8785 119.311 93.7154 119.231C93.5522 119.152 93.4133 119.031 93.313 118.881C93.2128 118.73 93.1548 118.555 93.1452 118.375C93.1355 118.195 93.1745 118.015 93.2581 117.855C95.5167 112.449 90.6547 108.518 85.6202 111.711C82.6881 113.879 80.5455 116.94 79.5167 120.429C87.7754 122.42 98.1374 127.895 100.206 133.884C101.017 136.201 98.3443 139.342 95.034 139.977C95.0056 139.985 94.9759 139.986 94.9468 139.981C94.9178 139.977 94.8901 139.966 94.8657 139.95C94.8412 139.933 94.8205 139.912 94.8049 139.887C94.7893 139.862 94.7793 139.835 94.7754 139.805C93.0512 130.881 83.4305 124.222 78.396 123.089C78.1547 123.759 78.2409 123.553 77.9823 124.222C80.9669 125.602 83.6167 127.608 85.7503 130.102C87.8839 132.596 89.451 135.52 90.3443 138.673C91.034 141.642 87.7236 144.302 84.9823 145.04C84.9502 145.048 84.9169 145.048 84.8847 145.041C84.8525 145.035 84.8221 145.021 84.7958 145.002C84.7694 144.982 84.7478 144.957 84.7323 144.928C84.7169 144.899 84.708 144.867 84.7064 144.834C84.1891 136.665 80.5685 129.748 77.3271 126.59C77.2236 127.191 77.1719 127.809 77.1202 128.444C77.1202 128.444 80.4478 137.66 80.4478 144.388C80.4478 147.511 75.7754 149.691 74.9133 150C74.2236 149.691 69.5512 147.511 69.5512 144.388C69.5512 137.66 72.8788 128.444 72.8788 128.444C72.8788 127.803 72.8098 127.185 72.6719 126.59C69.4305 129.748 65.7754 136.682 65.2926 144.834C65.2884 144.866 65.2778 144.896 65.2616 144.924C65.2454 144.951 65.2238 144.976 65.1981 144.995C65.1724 145.014 65.1432 145.028 65.112 145.036C65.0809 145.043 65.0485 145.045 65.0167 145.04C62.2754 144.302 58.965 141.608 59.6547 138.673C60.5404 135.526 62.0969 132.607 64.2183 130.113C66.3396 127.619 68.976 125.61 71.9478 124.222L71.5167 123.089C66.4995 124.222 56.8443 130.881 55.1547 139.805C55.1508 139.835 55.1407 139.862 55.1251 139.887C55.1095 139.912 55.0888 139.933 55.0644 139.95C55.0399 139.966 55.0122 139.977 54.9832 139.981C54.9542 139.986 54.9245 139.985 54.896 139.977C51.6547 139.342 48.9823 136.201 49.7236 133.884C51.8271 127.895 62.1891 122.42 70.4133 120.429C69.3777 116.943 67.2365 113.885 64.3098 111.711C59.2754 108.518 54.4133 112.449 56.6719 117.855C56.7555 118.015 56.7945 118.195 56.7849 118.375C56.7752 118.555 56.7172 118.73 56.617 118.881C56.5167 119.031 56.3778 119.152 56.2147 119.231C56.0515 119.311 55.8701 119.345 55.6891 119.331C50.6801 119.306 45.7582 120.635 41.4478 123.175C41.4478 123.175 45.3616 126.779 45.4133 126.848C45.5631 126.974 45.6861 127.128 45.775 127.302C45.8638 127.476 45.9167 127.666 45.9305 127.86C45.9319 128.293 45.7693 128.71 45.4752 129.028C45.1812 129.346 44.7773 129.542 44.3443 129.577C44.0987 129.597 43.8515 129.564 43.6195 129.482C43.3876 129.399 43.1761 129.267 42.9995 129.096L39.0857 125.492C37.8334 126.224 36.3509 126.463 34.9305 126.161C33.8828 125.964 32.9181 125.46 32.1595 124.714C31.4009 123.968 30.883 123.014 30.6719 121.974C30.4916 120.718 30.8136 119.443 31.5685 118.421C31.5685 118.421 16.8098 104.554 16.6891 104.382L15.9822 104.725C14.4133 105.669 12.534 104.485 12.6202 103.661C11.8691 104.04 11.0403 104.241 10.1984 104.249C9.35644 104.256 8.52417 104.07 7.76648 103.704C7.00879 103.339 6.34617 102.804 5.83032 102.142C5.31446 101.479 4.95932 100.707 4.79259 99.8856C5.84432 99.8856 7.96501 99.8856 7.96501 99.8856C7.96501 99.8856 5.41328 95.9725 7.25811 93.8101C9.10294 91.6476 13.4822 94.119 13.4822 94.119C13.4822 94.119 13.4822 92.0423 13.2581 91.0297C18.6374 92.1968 18.5857 97.2597 17.6202 98.4268C18.4478 98.3066 19.7754 100.143 18.9133 101.653L18.7926 101.945C19.0685 102.082 34.2064 116.362 34.2064 116.362C34.8485 116.136 35.5256 116.026 36.2064 116.035C36.9739 116.031 37.7344 116.181 38.4424 116.476C39.1505 116.771 39.7915 117.205 40.3271 117.752C44.1719 118.232 52.396 116.362 51.6202 115.212C42.9133 102.975 49.6202 95.6121 57.6719 96.1098V104.348C57.7213 105.665 58.2937 106.909 59.2634 107.807C60.2331 108.704 61.5209 109.183 62.8443 109.136H68.4133C72.396 109.136 74.9995 113.135 74.9995 113.135C74.9995 113.135 77.6029 109.136 81.5857 109.136H87.1547C88.4768 109.178 89.7621 108.698 90.7308 107.802C91.6995 106.905 92.2732 105.664 92.3271 104.348V96.1098C100.379 95.6979 107.086 102.975 98.3271 115.28C97.5512 116.447 105.534 118.215 108.465 117.803C108.748 116.73 109.241 115.723 109.916 114.839C110.59 113.956 111.433 113.213 112.396 112.654L117.241 116.413ZM81.3443 91.8021C83.0685 91.167 85.8098 91.6819 85.7064 94.1705C85.7064 94.2246 85.7171 94.2781 85.7379 94.3281C85.7587 94.3781 85.7892 94.4235 85.8276 94.4617C85.866 94.5 85.9116 94.5303 85.9618 94.551C86.012 94.5717 86.0658 94.5824 86.1202 94.5824C86.1745 94.5824 86.2283 94.5717 86.2785 94.551C86.3287 94.5303 86.3744 94.5 86.4128 94.4617C86.4512 94.4235 86.4817 94.3781 86.5025 94.3281C86.5233 94.2781 86.534 94.2246 86.534 94.1705C87.0685 90.4291 84.5167 89.3478 81.8616 89.794C81.534 88.5069 81.2754 87.3741 80.965 86.2586C80.6547 85.143 80.6202 83.667 81.6719 83.667C82.2409 83.667 82.0167 85.246 81.965 85.9153C81.9133 86.5847 82.1202 86.8764 82.6202 86.8936C83.1202 86.9108 83.2926 86.516 83.5167 86.2757C85.034 84.5595 85.396 81.9165 83.6029 80.6293C82.5578 80.183 81.4009 80.0638 80.2861 80.2876C79.1713 80.5114 78.1513 81.0675 77.3616 81.8821C77.0529 81.1747 76.6339 80.5202 76.1202 79.9428C75.7754 79.5481 75.6719 79.2735 76.1202 78.913C76.6177 78.5385 76.9462 77.9832 77.034 77.3684C77.0253 77.203 76.9833 77.0409 76.9105 76.8919C76.8377 76.743 76.7355 76.6101 76.61 76.5012C76.4846 76.3923 76.3384 76.3097 76.1802 76.2582C76.022 76.2067 75.855 76.1873 75.6891 76.2014C75.2319 76.2014 74.7933 76.3822 74.47 76.704C74.1467 77.0259 73.965 77.4624 73.965 77.9176C73.9699 78.2304 74.0529 78.5371 74.2064 78.8101C73.343 78.7258 72.4719 78.7663 71.6202 78.9302L81.465 105.721C84.2581 104.348 86.3098 102.168 86.3098 99.8341C86.3098 97.8261 83.3616 98.4954 81.9305 100.057C81.4823 97.5172 81.0685 95.1831 80.6202 92.8661C80.4995 92.2311 80.8271 91.9908 81.3443 91.8021ZM67.5512 73.6442L69.6029 79.3249C67.8788 79.754 65.0167 81.0412 65.0167 82.7574C65.0167 85.0057 69.0167 86.4645 71.3271 86.2929C71.2674 86.5377 71.2709 86.7935 71.3372 87.0365C71.4035 87.2796 71.5305 87.502 71.7064 87.6831C70.6498 87.6906 69.621 88.02 68.7581 88.627C68.2534 88.0865 67.5936 87.714 66.8685 87.5605C66.1434 87.4069 65.3884 87.4797 64.7064 87.7689C63.7754 88.4725 63.7581 89.6567 64.7064 90.9954C65.0784 91.3787 65.3003 91.8819 65.3319 92.4139C65.3635 92.9459 65.2028 93.4716 64.8788 93.8959C67.6719 93.8959 66.6029 90.2918 67.7409 90.2918C67.595 91.1008 67.6848 91.9346 67.9995 92.6945C68.1157 92.9509 68.1625 93.2331 68.1352 93.5131C68.108 93.7931 68.0077 94.0611 67.8443 94.2906C66.4452 96.6181 65.7174 99.2843 65.7409 101.997C64.8271 101.997 64.3616 101.756 64.6719 100.521C64.7926 100.057 64.5167 99.7311 64.1374 100.297C63.7559 100.957 63.5428 101.699 63.5167 102.46C63.5167 105.103 66.6719 105.635 67.896 105.086C71.3443 108.518 78.2409 107.557 80.5685 106.424L68.4995 73.3524C68.478 73.2927 68.4449 73.2378 68.402 73.1908C68.3592 73.1438 68.3075 73.1057 68.2499 73.0786C68.1922 73.0515 68.1298 73.0359 68.0661 73.0329C68.0024 73.0298 67.9388 73.0392 67.8788 73.0606C67.8188 73.082 67.7636 73.115 67.7164 73.1577C67.6692 73.2003 67.6309 73.2518 67.6037 73.3091C67.5765 73.3665 67.5609 73.4287 67.5578 73.492C67.5547 73.5554 67.5642 73.6188 67.5857 73.6785L67.5512 73.6442ZM67.1202 100.881C68.6301 100.104 70.319 99.7372 72.0167 99.8169C71.4872 99.0814 71.1367 98.2333 70.9931 97.3397C70.8494 96.4461 70.9166 95.5315 71.1891 94.6682C68.7409 97.0881 66.8443 99.5423 67.0857 100.881H67.1202Z" fill="url(#paint0_linear)"/>
<defs>
<linearGradient id="paint0_linear" x1="-3.40898" y1="52.1127" x2="133.181" y2="58.2409" gradientUnits="userSpaceOnUse">
<stop stop-color="#A9A4AE"/>
<stop offset="0.528153" stop-color="#EAE9F1"/>
<stop offset="1" stop-color="#ADA8B4"/>
</linearGradient>
</defs>
</svg>
