<svg width="200" height="140" viewBox="0 0 200 140" fill="none" xmlns="http://www.w3.org/2000/svg">
<g clip-path="url(#clip0)">
<path fill-rule="evenodd" clip-rule="evenodd" d="M42.1915 113.581C21.9324 112.923 2.66836 106.554 2.66836 94.1152C2.56364 89.0879 3.13838 84.0696 4.37696 79.1964C5.76637 73.5595 8.13213 69.5386 12.6383 67.096C16.6188 64.8225 31.7897 57.194 33.7048 53.9434C31.1581 51.0361 29.2403 47.6327 28.072 43.9474L26.8141 43.1958C24.9529 38.4671 24.1517 33.3871 24.4671 28.3146L25.3683 27.6382C25.2932 26.0223 25.2932 24.4064 25.3683 22.7905C25.6875 16.3645 27.0769 12.2684 32.7097 8.4542C36.4849 5.77749 41.0206 4.38747 45.6462 4.48963C50.2711 4.3928 54.8052 5.78232 58.5827 8.4542C64.2155 12.2121 65.5861 16.2894 65.8865 22.7529C65.9616 24.3688 65.9616 25.9847 65.8865 27.6006L66.7878 28.277C67.1032 33.3496 66.302 38.4295 64.4408 43.1583L63.1828 43.9098C62.0072 47.5919 60.0902 50.9938 57.5501 53.9058C59.2587 56.837 71.463 63.2066 76.9267 66.1753C74.6548 67.5657 72.383 68.881 71.294 69.501C66.8066 72.0564 62.1877 74.4051 57.7191 77.0168C50.2087 81.0753 46.4536 87.8207 44.576 95.9565C43.128 101.724 42.3282 107.636 42.1915 113.581Z" fill="url(#paint0_linear)"/>
<path fill-rule="evenodd" clip-rule="evenodd" d="M36.2377 56.1234C32.8956 60.5577 19.0954 67.2655 14.2888 70.0088C10.1769 72.3762 8.65601 75.6456 7.64212 80.0047C6.48942 84.6111 5.94653 89.349 6.0274 94.0968C6.02543 94.9578 6.15848 95.8137 6.42169 96.6334C7.67967 100.391 11.6038 103.022 15.4529 104.807L15.1337 94.1532L13.932 89.6437L14.9084 87.7648L17.6872 93.2701C17.7772 93.4575 17.8222 93.6634 17.8186 93.8714L18.1754 105.991L19.5648 106.554C26.3102 108.73 33.3235 109.963 40.4059 110.218C40.65 98.2305 41.3635 75.7771 42.7153 69.4075C42.7153 69.0505 42.9407 68.6559 42.7153 68.3553C42.49 68.0547 41.7578 67.5474 41.4198 67.2279C41.3192 67.1434 41.2396 67.0366 41.1875 66.9159C41.1353 66.7952 41.112 66.664 41.1194 66.5327C40.988 65.1611 41.3072 61.6663 42.5464 61.7414C44.5762 62.2325 46.6938 62.2325 48.7236 61.7414C49.9816 61.7414 50.282 65.1611 50.1693 66.5327C50.1767 66.664 50.1534 66.7952 50.1013 66.9159C50.0491 67.0366 49.9696 67.1434 49.8689 67.2279C49.5122 67.5474 48.8738 68.0171 48.5734 68.3553C48.273 68.6935 48.442 69.0505 48.5734 69.4075C49.3302 74.1469 49.7943 78.9285 49.9628 83.7251C52.0372 80.9421 54.7055 78.657 57.7735 77.036C62.2422 74.4807 66.861 72.132 71.3485 69.5203L73.6767 68.205C67.5933 64.9356 57.8487 59.7873 55.1074 56.1422C53.8468 57.0136 52.4769 57.7149 51.033 58.2278C47.5529 59.2594 43.8485 59.2594 40.3684 58.2278C38.9245 57.7149 37.5546 57.0136 36.294 56.1422L36.2377 56.1234ZM31.9944 25.7597C31.6001 25.6282 31.4499 29.0854 32.1446 33.2755C31.4311 33.0312 29.7037 32.7869 29.4221 32.0166C29.2231 31.3126 29.0664 30.5973 28.9527 29.8746C28.9527 29.5364 28.8212 29.2357 28.4457 29.5364L27.9763 29.8934C27.9351 29.9318 27.9021 29.9784 27.8795 30.0301C27.8569 30.0818 27.8451 30.1376 27.8449 30.194C27.8222 33.7094 28.3935 37.2034 29.5347 40.5282C29.62 40.7655 29.7862 40.9651 30.0041 41.0919L30.6425 41.4676C30.7625 41.5313 30.8679 41.6194 30.9519 41.7261C31.036 41.8329 31.0969 41.9561 31.1307 42.0877L31.3747 42.952C32.3906 46.161 34.0519 49.1279 36.2565 51.6703C37.6953 53.2017 39.4876 54.3565 41.4761 55.0336C44.2373 55.8231 47.1641 55.8231 49.9253 55.0336C51.9086 54.3457 53.6984 53.1924 55.1449 51.6703C57.3485 49.1303 59.004 46.1622 60.0079 42.952L60.2707 42.0877C60.3045 41.9561 60.3654 41.8329 60.4495 41.7261C60.5335 41.6194 60.6389 41.5313 60.7589 41.4676L61.3973 41.0919C61.6103 40.9595 61.775 40.7618 61.8667 40.5282C63.0108 37.2046 63.576 33.7091 63.5377 30.194C63.5453 30.1385 63.539 30.0819 63.5193 30.0294C63.4997 29.977 63.4673 29.9302 63.4251 29.8934L62.8993 29.5176C62.5051 29.2169 62.4675 29.5176 62.3924 29.8558C62.258 30.5378 62.076 31.2096 61.8479 31.8663C61.585 32.6366 59.8389 32.8809 59.1254 33.1251C59.8201 28.9727 59.6887 25.6094 59.2944 25.6094C50.4556 28.6453 40.866 28.6981 31.9944 25.7597Z" fill="#1A1A34"/>
<path fill-rule="evenodd" clip-rule="evenodd" d="M125.532 67.6787C127.597 65.7998 129.963 63.9209 132.685 61.8352C129.703 63.0658 126.958 64.8081 124.574 66.9835C123.973 66.1004 128.498 58.5095 129.268 56.95C134.901 45.6763 133.023 37.0896 133.85 25.4025C134.206 19.9724 136.084 13.847 140.252 10.1455C142.562 8.07868 147.368 5.10995 151.142 6.38763H151.48C153.81 5.25981 156.346 4.62073 158.932 4.50966C161.518 4.3986 164.099 4.81789 166.517 5.74178C168.935 6.66567 171.138 8.07464 172.992 9.88208C174.846 11.6895 176.311 13.8573 177.297 16.2521C178.939 21.2123 179.727 26.4161 179.625 31.6406C180.207 52.7036 186.666 57.0251 188.863 66.3823C185.691 63.6711 181.93 61.7406 177.879 60.7454C187.774 65.7434 192.899 71.2487 195.472 79.5349C196.974 84.3825 197.011 87.0506 197.349 94.2094C197.349 106.911 181.033 113.318 157.92 113.487C157.805 107.513 157.024 101.57 155.592 95.7689C153.583 87.6331 149.959 80.8877 142.449 76.8292C137.98 74.2738 133.361 71.9252 128.893 69.3134C128.01 69.1067 126.884 68.4679 125.532 67.6787Z" fill="url(#paint1_linear)"/>
<path fill-rule="evenodd" clip-rule="evenodd" d="M141.457 31.1332C141.197 30.9317 140.985 30.675 140.837 30.3816C140.18 29.1979 139.091 30.5507 139.11 31.7908C139.139 34.9076 139.652 38.001 140.63 40.96C140.987 42.1062 141.175 41.9371 142.226 42.5572C143.251 46.9509 145.799 50.8389 149.418 53.5302C155.369 57.6075 157.716 57.5887 163.706 53.5302C167.837 50.7493 169.339 47.0854 170.747 42.5384C171.798 41.9183 171.986 42.0874 172.343 40.9413C173.307 37.9862 173.807 34.8994 173.826 31.7908C173.869 31.4137 173.797 31.0323 173.62 30.6969C173.442 30.3615 173.167 30.0878 172.831 29.9119C172.455 29.7991 172.155 30.2689 171.798 30.6634C170.615 31.9975 166.729 32.5424 165.039 32.7679C161.414 33.1451 157.75 32.6756 154.337 31.3962C152.703 30.8138 147.446 28.6154 144.949 29.01C143.071 29.1415 142.771 31.9787 141.457 31.1332ZM184.209 109.541C183.758 109.729 183.308 109.898 182.838 110.049C183.195 105.088 183.477 100.203 183.759 95.0172C184.439 93.3977 185.256 91.8388 186.199 90.3574L186.368 90.7708C186.519 91.1278 185.185 94.5287 185.073 95.1488C184.81 100.053 184.547 104.731 184.209 109.466V109.541ZM173.544 70.854L165.152 65.7809L156.796 75.0253L148.46 65.7809L140.03 70.854L144.217 57.7014C144.558 58.0151 144.937 58.2864 145.343 58.5094C145.737 58.6973 146.639 56.2546 146.864 54.7515C148.468 56.1277 150.204 57.3423 152.046 58.3778C153.425 59.2701 155.032 59.7447 156.674 59.7447C158.316 59.7447 159.924 59.2701 161.303 58.3778C163.145 57.3423 164.881 56.1277 166.485 54.7515C166.71 56.2734 167.611 58.7161 168.006 58.5094C168.4 58.3027 169.076 57.0814 169.245 57.6075L173.544 70.854Z" fill="#1A1A34"/>
<path fill-rule="evenodd" clip-rule="evenodd" d="M99.9996 140C72.4555 140 44.9114 131.696 44.8738 114.973C44.7445 108.521 45.4834 102.081 47.0706 95.8265C48.8355 88.649 51.7646 83.4443 57.6602 80.3065C62.7672 77.3753 82.2189 67.6048 84.6786 63.396C81.441 59.6435 79.0007 55.2707 77.5062 50.544L75.8915 49.5858C73.5026 43.5266 72.4769 37.0152 72.8874 30.5145L74.0327 29.6314C74.0327 27.5458 74.0327 25.4789 74.0327 23.4121C74.4082 15.126 76.267 9.97767 83.4206 5.07363C88.2626 1.65174 94.0733 -0.126345 99.9996 0.000483483C105.934 -0.124907 111.753 1.66001 116.597 5.09242C123.732 9.99646 125.591 15.1448 125.985 23.4309C125.985 25.4977 125.985 27.5646 125.985 29.6502L127.149 30.5333C127.539 37.0364 126.501 43.5459 124.108 49.6046L122.493 50.5628C120.999 55.2895 118.558 59.6623 115.321 63.4148C117.762 67.6236 137.232 77.3941 142.339 80.3253C148.216 83.4631 151.164 88.6678 152.929 95.8453C154.514 102.094 155.253 108.527 155.125 114.973C155.069 131.696 127.544 140.019 99.9996 140Z" fill="url(#paint2_linear)"/>
<path fill-rule="evenodd" clip-rule="evenodd" d="M82.5002 27.1687C81.9745 26.9996 81.8055 31.4339 82.688 36.7514C81.7867 36.4507 79.5524 36.1313 79.1957 35.1542C78.8389 34.1772 78.6887 33.3693 78.501 32.5613C78.501 32.1292 78.3508 31.7534 77.8626 32.1292L77.2618 32.5801C77.2077 32.6296 77.166 32.691 77.1399 32.7595C77.1138 32.8281 77.1041 32.9017 77.1116 32.9747C77.0767 37.4807 77.8068 41.9599 79.2708 46.2212C79.3715 46.527 79.5779 46.7868 79.8528 46.954L80.679 47.4425C80.8322 47.5226 80.9667 47.6344 81.0735 47.7705C81.1803 47.9065 81.257 48.0637 81.2986 48.2317L81.6365 49.3591C82.94 53.472 85.0674 57.276 87.8889 60.5388C89.7467 62.4937 92.045 63.9755 94.5919 64.8603C98.1281 65.8564 101.87 65.8564 105.407 64.8603C107.954 63.9755 110.252 62.4937 112.11 60.5388C114.904 57.2695 117.006 53.4659 118.287 49.3591L118.606 48.2317C118.654 48.0639 118.735 47.9076 118.845 47.772C118.955 47.6364 119.091 47.5243 119.244 47.4425L120.165 46.9728C120.45 46.8132 120.665 46.5514 120.765 46.24C122.219 42.0085 122.949 37.5619 122.925 33.0874C122.927 33.015 122.915 32.9427 122.889 32.875C122.863 32.8072 122.824 32.7453 122.774 32.6928L122.174 32.2419C121.667 31.8661 121.61 32.2419 121.516 32.674C121.34 33.5504 121.115 34.4161 120.84 35.267C120.484 36.244 118.249 36.5635 117.329 36.8641C118.231 31.5467 118.062 27.1124 117.536 27.2815C106.181 31.0954 93.8926 31.0954 82.5378 27.2815L82.5002 27.1687ZM139.429 108.677L136.556 114.22C136.52 114.375 136.52 114.535 136.556 114.69L135.861 134.532L137.739 133.818L138.302 114.915L139.804 109.41L139.429 108.677ZM64.1187 134.532L62.2411 133.818L61.6591 114.915L60.1758 109.41L60.5513 108.677L63.424 114.22C63.4822 114.37 63.514 114.529 63.5179 114.69L64.0999 134.532H64.1187ZM88.0203 66.1756C86.2238 68.7118 83.823 70.7591 81.0357 72.1318C83.0072 87.1634 86.8187 109.504 93.6155 118.673C94.0849 103.397 94.9486 88.7229 96.3005 82.3721C96.4131 81.9211 96.5821 81.4138 96.3005 81.038C96.0188 80.6622 95.08 79.9858 94.6482 79.5912C94.5211 79.4825 94.4198 79.3469 94.3516 79.1942C94.2834 79.0414 94.25 78.8754 94.2539 78.7081C94.0849 76.9419 94.4792 72.4513 96.1315 72.564C98.7385 73.1649 101.448 73.1649 104.055 72.564C105.67 72.4513 106.064 76.9419 105.932 78.7081C105.936 78.8754 105.903 79.0414 105.835 79.1942C105.767 79.3469 105.665 79.4825 105.538 79.5912C105.106 79.9858 104.28 80.6059 103.886 81.038C103.492 81.4702 103.717 81.9211 103.886 82.3721C105.144 88.8169 105.914 103.341 106.383 118.636C112.579 110.049 116.128 90.4515 118.174 74.8751C118.306 73.8417 118.437 72.8646 118.55 71.9064C115.929 70.5553 113.674 68.589 111.978 66.1756L111.753 66.4199C107.134 71.1548 92.8645 71.1548 88.2456 66.4199L88.0203 66.1756Z" fill="#1A1A34"/>
</g>
<defs>
<linearGradient id="paint0_linear" x1="0.95019" y1="42.3865" x2="68.6832" y2="44.4562" gradientUnits="userSpaceOnUse">
<stop stop-color="#A9A4AE"/>
<stop offset="0.528153" stop-color="#EAE9F1"/>
<stop offset="1" stop-color="#ADA8B4"/>
</linearGradient>
<linearGradient id="paint1_linear" x1="122.847" y1="42.3591" x2="189.268" y2="44.3512" gradientUnits="userSpaceOnUse">
<stop stop-color="#A9A4AE"/>
<stop offset="0.528153" stop-color="#EAE9F1"/>
<stop offset="1" stop-color="#ADA8B4"/>
</linearGradient>
<linearGradient id="paint2_linear" x1="42.3261" y1="48.6349" x2="142.867" y2="52.1895" gradientUnits="userSpaceOnUse">
<stop stop-color="#A9A4AE"/>
<stop offset="0.528153" stop-color="#EAE9F1"/>
<stop offset="1" stop-color="#ADA8B4"/>
</linearGradient>
<clipPath id="clip0">
<rect width="200" height="140" fill="white"/>
</clipPath>
</defs>
</svg>
