<svg width="60" height="60" viewBox="0 0 60 60" fill="none" xmlns="http://www.w3.org/2000/svg">
<g clip-path="url(#clip0)">
<path d="M58.6666 14.8408C58.6666 14.7774 58.6666 14.7774 58.6666 14.714C58.6032 14.5871 58.6032 14.4603 58.5398 14.3334V14.27C58.4764 14.1432 58.3495 14.0163 58.2861 13.9529L58.2227 13.8895C58.1592 13.826 58.0324 13.7626 57.969 13.6992L57.9056 13.6358H57.8421L57.7787 13.5724L30.8243 0.190267C30.3169 -0.0634222 29.6827 -0.0634222 29.1119 0.190267L20.0425 4.69324L47.1238 18.5827L47.1872 18.6461C47.2506 18.6461 47.2506 18.7095 47.314 18.7095C47.3775 18.773 47.3775 18.8364 47.4409 18.8998C47.4409 18.9632 47.4409 18.9632 47.4409 19.0267V19.0901V33.804C47.4409 34.0577 47.314 34.248 47.1238 34.3748L41.6695 37.2288C41.3524 37.4191 40.9718 37.2923 40.7816 36.9751C40.7181 36.9117 40.7181 36.7849 40.7181 36.658V22.2612L13.3197 8.11804L13.2563 8.05462L2.28429 13.5089L2.22086 13.5724H2.15744L2.09402 13.6358C2.0306 13.6992 1.90375 13.7626 1.84033 13.826L1.77691 13.8895C1.65006 14.0163 1.58664 14.1432 1.4598 14.27V14.3334C1.39638 14.4603 1.33295 14.5871 1.33295 14.714C1.33295 14.7774 1.33295 14.7774 1.33295 14.8408C1.33295 14.9676 1.26953 15.0311 1.26953 15.1579V15.2213V44.7761C1.26953 45.4737 1.65006 46.1714 2.34771 46.4885L29.0485 59.8071C29.429 59.9974 29.8729 60.0608 30.3169 59.934L30.4437 59.8706C30.5706 59.8706 30.634 59.8071 30.7609 59.7437L57.6519 46.425C58.2861 46.1079 58.73 45.4737 58.73 44.7127V15.2213V15.1579C58.6666 15.0311 58.6666 14.9676 58.6666 14.8408Z" fill="url(#paint0_linear)"/>
</g>
<defs>
<linearGradient id="paint0_linear" x1="-0.0503888" y1="20.8451" x2="52.3045" y2="23.0956" gradientUnits="userSpaceOnUse">
<stop stop-color="#A9A4AE"/>
<stop offset="0.528153" stop-color="#EAE9F1"/>
<stop offset="1" stop-color="#ADA8B4"/>
</linearGradient>
<clipPath id="clip0">
<rect width="60" height="60" fill="white"/>
</clipPath>
</defs>
</svg>
